<svg width="475" height="394" viewBox="0 0 475 394" fill="none" xmlns="http://www.w3.org/2000/svg">
<rect width="475" height="393.976" rx="15.9396" fill="white"/>
<path opacity="0.5" d="M71.6019 344.779H73.5002V353.728C73.5002 354.538 73.34 355.23 73.0195 355.805C72.7031 356.381 72.2573 356.82 71.682 357.124C71.1067 357.424 70.4329 357.574 69.6604 357.574C68.9495 357.574 68.3106 357.445 67.7435 357.186C67.1806 356.927 66.7347 356.551 66.406 356.058C66.0814 355.561 65.9191 354.957 65.9191 354.246H67.8113C67.8113 354.595 67.8914 354.897 68.0517 355.152C68.216 355.407 68.44 355.606 68.7235 355.75C69.0111 355.89 69.3399 355.959 69.7097 355.959C70.1124 355.959 70.4534 355.875 70.7328 355.707C71.0163 355.534 71.2321 355.281 71.38 354.949C71.5279 354.616 71.6019 354.209 71.6019 353.728V344.779ZM85.8773 344.779H87.788V353.081C87.788 353.964 87.5805 354.747 87.1655 355.429C86.7505 356.107 86.167 356.642 85.415 357.032C84.6631 357.418 83.7817 357.611 82.7709 357.611C81.7642 357.611 80.8849 357.418 80.1329 357.032C79.381 356.642 78.7975 356.107 78.3825 355.429C77.9675 354.747 77.76 353.964 77.76 353.081V344.779H79.6645V352.927C79.6645 353.498 79.7898 354.006 80.0405 354.449C80.2952 354.893 80.6548 355.242 81.1191 355.497C81.5834 355.748 82.134 355.873 82.7709 355.873C83.4119 355.873 83.9646 355.748 84.4289 355.497C84.8973 355.242 85.2548 354.893 85.5013 354.449C85.752 354.006 85.8773 353.498 85.8773 352.927V344.779ZM92.0446 357.402V344.779H93.9492V355.762H99.6689V357.402H92.0446Z" fill="#0F0F0F"/>
<path opacity="0.5" d="M131.817 357.402H129.796L134.338 344.779H136.539L141.081 357.402H139.06L135.491 347.072H135.392L131.817 357.402ZM132.156 352.458H138.714V354.061H132.156V352.458ZM152.509 344.779H154.42V353.081C154.42 353.964 154.212 354.747 153.797 355.429C153.382 356.107 152.799 356.641 152.047 357.032C151.295 357.418 150.413 357.611 149.403 357.611C148.396 357.611 147.517 357.418 146.765 357.032C146.013 356.641 145.429 356.107 145.014 355.429C144.599 354.747 144.392 353.964 144.392 353.081V344.779H146.296V352.927C146.296 353.498 146.422 354.006 146.672 354.449C146.927 354.893 147.287 355.242 147.751 355.497C148.215 355.748 148.766 355.873 149.403 355.873C150.044 355.873 150.596 355.748 151.061 355.497C151.529 355.242 151.887 354.893 152.133 354.449C152.384 354.006 152.509 353.498 152.509 352.927V344.779ZM167.219 348.767C167.1 348.393 166.94 348.058 166.738 347.762C166.541 347.462 166.305 347.207 166.029 346.998C165.754 346.784 165.44 346.622 165.086 346.511C164.737 346.4 164.353 346.344 163.934 346.344C163.223 346.344 162.582 346.527 162.011 346.893C161.44 347.259 160.988 347.795 160.655 348.502C160.326 349.204 160.162 350.065 160.162 351.084C160.162 352.107 160.328 352.972 160.661 353.679C160.994 354.386 161.45 354.922 162.029 355.288C162.609 355.653 163.268 355.836 164.008 355.836C164.694 355.836 165.292 355.696 165.801 355.417C166.315 355.138 166.712 354.743 166.991 354.234C167.274 353.72 167.416 353.116 167.416 352.421L167.909 352.514H164.298V350.942H169.259V352.378C169.259 353.438 169.033 354.359 168.581 355.14C168.133 355.916 167.513 356.516 166.72 356.939C165.931 357.363 165.027 357.574 164.008 357.574C162.866 357.574 161.863 357.311 161 356.785C160.141 356.259 159.471 355.514 158.991 354.548C158.51 353.578 158.27 352.428 158.27 351.096C158.27 350.09 158.409 349.186 158.689 348.384C158.968 347.583 159.361 346.903 159.866 346.344C160.375 345.781 160.973 345.352 161.66 345.056C162.35 344.756 163.104 344.606 163.922 344.606C164.604 344.606 165.238 344.707 165.826 344.908C166.418 345.11 166.944 345.395 167.404 345.765C167.868 346.135 168.252 346.574 168.557 347.084C168.861 347.589 169.066 348.15 169.173 348.767H167.219Z" fill="#0F0F0F"/>
<path opacity="0.5" d="M207.195 348.095C207.129 347.511 206.858 347.059 206.382 346.739C205.905 346.414 205.305 346.252 204.582 346.252C204.064 346.252 203.616 346.334 203.238 346.498C202.86 346.659 202.566 346.88 202.357 347.164C202.151 347.443 202.049 347.762 202.049 348.119C202.049 348.419 202.119 348.678 202.258 348.896C202.402 349.114 202.589 349.297 202.819 349.445C203.053 349.588 203.304 349.71 203.571 349.808C203.838 349.903 204.095 349.981 204.342 350.042L205.574 350.363C205.977 350.461 206.39 350.595 206.813 350.764C207.236 350.932 207.629 351.154 207.99 351.429C208.352 351.704 208.644 352.046 208.866 352.452C209.092 352.859 209.205 353.346 209.205 353.913C209.205 354.628 209.02 355.263 208.65 355.818C208.284 356.372 207.752 356.81 207.053 357.13C206.359 357.451 205.519 357.611 204.533 357.611C203.588 357.611 202.77 357.461 202.08 357.161C201.389 356.861 200.849 356.436 200.458 355.885C200.068 355.331 199.852 354.673 199.811 353.913H201.722C201.759 354.369 201.907 354.749 202.166 355.053C202.429 355.353 202.764 355.577 203.17 355.725C203.581 355.869 204.031 355.941 204.52 355.941C205.059 355.941 205.537 355.857 205.956 355.688C206.38 355.516 206.712 355.277 206.955 354.973C207.197 354.665 207.318 354.305 207.318 353.895C207.318 353.521 207.212 353.215 206.998 352.976C206.788 352.738 206.503 352.541 206.141 352.385C205.784 352.228 205.379 352.091 204.927 351.972L203.435 351.565C202.425 351.289 201.623 350.885 201.032 350.351C200.444 349.816 200.15 349.11 200.15 348.23C200.15 347.503 200.348 346.868 200.742 346.326C201.136 345.783 201.671 345.362 202.345 345.062C203.018 344.758 203.779 344.606 204.625 344.606C205.48 344.606 206.234 344.756 206.887 345.056C207.544 345.356 208.062 345.769 208.44 346.295C208.818 346.817 209.016 347.417 209.032 348.095H207.195ZM212.968 357.402V344.779H220.882V346.418H214.873V350.264H220.469V351.898H214.873V355.762H220.956V357.402H212.968ZM224.914 357.402V344.779H229.413C230.395 344.779 231.209 344.957 231.854 345.315C232.499 345.672 232.982 346.161 233.302 346.782C233.623 347.398 233.783 348.093 233.783 348.865C233.783 349.642 233.621 350.34 233.296 350.961C232.976 351.577 232.491 352.066 231.842 352.428C231.196 352.785 230.385 352.964 229.407 352.964H226.313V351.349H229.234C229.855 351.349 230.358 351.242 230.744 351.029C231.131 350.811 231.414 350.515 231.595 350.141C231.776 349.767 231.866 349.342 231.866 348.865C231.866 348.389 231.776 347.965 231.595 347.595C231.414 347.226 231.129 346.936 230.738 346.726C230.352 346.517 229.842 346.412 229.21 346.412H226.818V357.402H224.914Z" fill="#0F0F0F"/>
<path opacity="0.5" d="M275.886 351.09C275.886 352.438 275.639 353.597 275.146 354.566C274.653 355.532 273.977 356.276 273.118 356.798C272.264 357.315 271.292 357.574 270.203 357.574C269.11 357.574 268.134 357.315 267.275 356.798C266.421 356.276 265.747 355.53 265.254 354.56C264.76 353.591 264.514 352.434 264.514 351.09C264.514 349.742 264.76 348.586 265.254 347.62C265.747 346.65 266.421 345.907 267.275 345.389C268.134 344.867 269.11 344.606 270.203 344.606C271.292 344.606 272.264 344.867 273.118 345.389C273.977 345.907 274.653 346.65 275.146 347.62C275.639 348.586 275.886 349.742 275.886 351.09ZM274 351.09C274 350.063 273.833 349.198 273.5 348.495C273.172 347.789 272.72 347.254 272.144 346.893C271.573 346.527 270.926 346.344 270.203 346.344C269.476 346.344 268.826 346.527 268.255 346.893C267.684 347.254 267.232 347.789 266.899 348.495C266.571 349.198 266.406 350.063 266.406 351.09C266.406 352.117 266.571 352.984 266.899 353.691C267.232 354.394 267.684 354.928 268.255 355.294C268.826 355.655 269.476 355.836 270.203 355.836C270.926 355.836 271.573 355.655 272.144 355.294C272.72 354.928 273.172 354.394 273.5 353.691C273.833 352.984 274 352.117 274 351.09ZM290.232 348.884H288.309C288.235 348.473 288.097 348.111 287.896 347.799C287.695 347.487 287.448 347.222 287.156 347.004C286.865 346.786 286.538 346.622 286.176 346.511C285.819 346.4 285.439 346.344 285.036 346.344C284.309 346.344 283.658 346.527 283.082 346.893C282.511 347.259 282.059 347.795 281.726 348.502C281.398 349.208 281.233 350.071 281.233 351.09C281.233 352.117 281.398 352.984 281.726 353.691C282.059 354.398 282.513 354.932 283.088 355.294C283.664 355.655 284.311 355.836 285.03 355.836C285.429 355.836 285.807 355.783 286.164 355.676C286.526 355.565 286.852 355.403 287.144 355.189C287.436 354.975 287.682 354.714 287.884 354.406C288.089 354.094 288.231 353.736 288.309 353.334L290.232 353.34C290.129 353.96 289.93 354.531 289.634 355.053C289.342 355.571 288.966 356.019 288.506 356.397C288.05 356.771 287.528 357.061 286.941 357.266C286.353 357.471 285.712 357.574 285.018 357.574C283.925 357.574 282.951 357.315 282.096 356.798C281.241 356.276 280.568 355.53 280.074 354.56C279.586 353.591 279.341 352.434 279.341 351.09C279.341 349.742 279.588 348.586 280.081 347.62C280.574 346.65 281.248 345.907 282.102 345.389C282.957 344.867 283.929 344.606 285.018 344.606C285.687 344.606 286.312 344.703 286.891 344.896C287.475 345.085 287.999 345.364 288.463 345.734C288.927 346.1 289.312 346.548 289.616 347.078C289.92 347.604 290.125 348.206 290.232 348.884ZM293.376 346.418V344.779H303.145V346.418H299.207V357.402H297.308V346.418H293.376Z" fill="#0F0F0F"/>
<path opacity="0.5" d="M341.842 344.779V357.402H340.092L333.676 348.144H333.559V357.402H331.654V344.779H333.417L339.839 354.049H339.956V344.779H341.842ZM357.073 351.09C357.073 352.438 356.827 353.597 356.334 354.566C355.841 355.532 355.165 356.276 354.306 356.798C353.451 357.315 352.479 357.574 351.39 357.574C350.297 357.574 349.322 357.315 348.463 356.798C347.608 356.276 346.934 355.53 346.441 354.56C345.948 353.591 345.702 352.434 345.702 351.09C345.702 349.742 345.948 348.586 346.441 347.62C346.934 346.65 347.608 345.907 348.463 345.389C349.322 344.867 350.297 344.606 351.39 344.606C352.479 344.606 353.451 344.867 354.306 345.389C355.165 345.907 355.841 346.65 356.334 347.62C356.827 348.586 357.073 349.742 357.073 351.09ZM355.187 351.09C355.187 350.063 355.021 349.198 354.688 348.495C354.359 347.789 353.907 347.254 353.332 346.893C352.761 346.527 352.114 346.344 351.39 346.344C350.663 346.344 350.014 346.527 349.443 346.893C348.872 347.254 348.42 347.789 348.087 348.495C347.758 349.198 347.594 350.063 347.594 351.09C347.594 352.117 347.758 352.984 348.087 353.691C348.42 354.394 348.872 354.928 349.443 355.294C350.014 355.655 350.663 355.836 351.39 355.836C352.114 355.836 352.761 355.655 353.332 355.294C353.907 354.928 354.359 354.394 354.688 353.691C355.021 352.984 355.187 352.117 355.187 351.09ZM361.412 344.779L364.925 355.059H365.067L368.58 344.779H370.638L366.096 357.402H363.895L359.353 344.779H361.412Z" fill="#0F0F0F"/>
<path opacity="0.5" d="M403.728 357.934H399.642V345.311H403.858C405.095 345.311 406.157 345.564 407.044 346.069C407.932 346.571 408.612 347.292 409.084 348.233C409.561 349.17 409.799 350.294 409.799 351.604C409.799 352.919 409.559 354.049 409.078 354.994C408.602 355.939 407.911 356.667 407.007 357.176C406.103 357.682 405.01 357.934 403.728 357.934ZM401.546 356.27H403.624C404.585 356.27 405.384 356.089 406.021 355.728C406.658 355.362 407.135 354.834 407.451 354.144C407.767 353.449 407.926 352.603 407.926 351.604C407.926 350.614 407.767 349.774 407.451 349.083C407.139 348.393 406.672 347.869 406.052 347.512C405.431 347.154 404.661 346.975 403.741 346.975H401.546V356.27ZM413.655 357.934V345.311H421.569V346.951H415.56V350.797H421.156V352.43H415.56V356.295H421.643V357.934H413.655ZM436.085 349.416H434.162C434.088 349.005 433.951 348.644 433.749 348.331C433.548 348.019 433.301 347.754 433.01 347.536C432.718 347.319 432.391 347.154 432.03 347.043C431.672 346.932 431.292 346.877 430.889 346.877C430.162 346.877 429.511 347.06 428.935 347.425C428.364 347.791 427.912 348.327 427.58 349.034C427.251 349.741 427.086 350.604 427.086 351.623C427.086 352.65 427.251 353.517 427.58 354.224C427.912 354.931 428.366 355.465 428.942 355.826C429.517 356.188 430.164 356.369 430.883 356.369C431.282 356.369 431.66 356.315 432.017 356.208C432.379 356.097 432.705 355.935 432.997 355.722C433.289 355.508 433.536 355.247 433.737 354.939C433.942 354.626 434.084 354.269 434.162 353.866L436.085 353.872C435.982 354.493 435.783 355.064 435.487 355.586C435.196 356.104 434.82 356.552 434.359 356.93C433.903 357.303 433.381 357.593 432.794 357.799C432.206 358.004 431.565 358.107 430.871 358.107C429.778 358.107 428.804 357.848 427.949 357.33C427.095 356.808 426.421 356.063 425.928 355.093C425.439 354.123 425.194 352.966 425.194 351.623C425.194 350.275 425.441 349.118 425.934 348.153C426.427 347.183 427.101 346.439 427.955 345.922C428.81 345.4 429.782 345.139 430.871 345.139C431.541 345.139 432.165 345.235 432.745 345.428C433.328 345.617 433.852 345.897 434.316 346.267C434.781 346.632 435.165 347.08 435.469 347.61C435.773 348.136 435.978 348.738 436.085 349.416Z" fill="#0F0F0F"/>
<path opacity="0.5" d="M52.3269 318.268C51.3531 318.263 50.521 318.007 49.8307 317.497C49.1404 316.988 48.6124 316.246 48.2467 315.272C47.881 314.298 47.6982 313.125 47.6982 311.753C47.6982 310.384 47.881 309.215 48.2467 308.246C48.6165 307.276 49.1466 306.536 49.8369 306.027C50.5313 305.517 51.3613 305.263 52.3269 305.263C53.2926 305.263 54.1205 305.519 54.8108 306.033C55.5012 306.542 56.0292 307.282 56.3949 308.252C56.7647 309.217 56.9496 310.384 56.9496 311.753C56.9496 313.129 56.7667 314.304 56.401 315.278C56.0353 316.248 55.5073 316.99 54.817 317.503C54.1267 318.013 53.2967 318.268 52.3269 318.268ZM52.3269 316.622C53.1816 316.622 53.8493 316.205 54.3301 315.371C54.815 314.537 55.0574 313.331 55.0574 311.753C55.0574 310.705 54.9464 309.819 54.7246 309.096C54.5068 308.369 54.1924 307.818 53.7815 307.444C53.3747 307.066 52.8899 306.877 52.3269 306.877C51.4764 306.877 50.8087 307.296 50.3238 308.135C49.8389 308.973 49.5945 310.179 49.5903 311.753C49.5903 312.805 49.6992 313.694 49.917 314.422C50.1389 315.145 50.4532 315.693 50.86 316.067C51.2668 316.437 51.7558 316.622 52.3269 316.622Z" fill="#0F0F0F"/>
<path opacity="0.5" d="M35.9136 274.992V273.611L40.1849 269.186C40.641 268.705 41.017 268.284 41.3128 267.922C41.6128 267.557 41.8367 267.209 41.9846 266.881C42.1326 266.552 42.2065 266.203 42.2065 265.833C42.2065 265.414 42.1079 265.052 41.9107 264.748C41.7134 264.44 41.4443 264.204 41.1032 264.039C40.7622 263.871 40.378 263.787 39.9507 263.787C39.4987 263.787 39.1042 263.879 38.7673 264.064C38.4303 264.249 38.1715 264.51 37.9907 264.847C37.8099 265.184 37.7195 265.578 37.7195 266.03H35.9012C35.9012 265.262 36.0779 264.59 36.4313 264.015C36.7847 263.439 37.2695 262.994 37.8859 262.677C38.5022 262.357 39.2028 262.196 39.9876 262.196C40.7807 262.196 41.4792 262.355 42.0832 262.671C42.6914 262.983 43.166 263.411 43.507 263.953C43.8481 264.491 44.0186 265.099 44.0186 265.777C44.0186 266.246 43.9302 266.704 43.7536 267.152C43.581 267.6 43.279 268.099 42.8475 268.65C42.4161 269.196 41.8162 269.86 41.0478 270.64L38.5392 273.266V273.359H44.222V274.992H35.9136ZM52.4402 275.201C51.4664 275.197 50.6343 274.941 49.944 274.431C49.2537 273.921 48.7257 273.18 48.36 272.206C47.9943 271.232 47.8114 270.059 47.8114 268.687C47.8114 267.318 47.9943 266.149 48.36 265.18C48.7298 264.21 49.2599 263.47 49.9502 262.961C50.6446 262.451 51.4746 262.196 52.4402 262.196C53.4058 262.196 54.2338 262.453 54.9241 262.967C55.6144 263.476 56.1424 264.216 56.5081 265.186C56.878 266.151 57.0629 267.318 57.0629 268.687C57.0629 270.063 56.88 271.238 56.5143 272.212C56.1486 273.182 55.6206 273.924 54.9303 274.437C54.24 274.947 53.41 275.201 52.4402 275.201ZM52.4402 273.556C53.2949 273.556 53.9626 273.139 54.4434 272.305C54.9282 271.47 55.1707 270.264 55.1707 268.687C55.1707 267.639 55.0597 266.753 54.8378 266.03C54.6201 265.303 54.3057 264.752 53.8948 264.378C53.488 264 53.0032 263.811 52.4402 263.811C51.5897 263.811 50.922 264.23 50.4371 265.069C49.9522 265.907 49.7077 267.113 49.7036 268.687C49.7036 269.739 49.8125 270.628 50.0303 271.355C50.2522 272.079 50.5665 272.627 50.9733 273.001C51.3801 273.371 51.8691 273.556 52.4402 273.556Z" fill="#0F0F0F"/>
<path opacity="0.5" d="M35.0695 229.46V227.919L40.5242 219.303H41.7384V221.571H40.9679L37.0664 227.747V227.845H44.5428V229.46H35.0695ZM41.0542 231.926V228.992L41.0666 228.289V219.303H42.8725V231.926H41.0542ZM52.573 232.135C51.5992 232.131 50.7671 231.874 50.0768 231.365C49.3865 230.855 48.8585 230.114 48.4928 229.14C48.1271 228.166 47.9442 226.993 47.9442 225.62C47.9442 224.252 48.1271 223.083 48.4928 222.113C48.8626 221.144 49.3927 220.404 50.083 219.895C50.7774 219.385 51.6074 219.13 52.573 219.13C53.5387 219.13 54.3666 219.387 55.0569 219.901C55.7472 220.41 56.2753 221.15 56.641 222.12C57.0108 223.085 57.1957 224.252 57.1957 225.62C57.1957 226.997 57.0128 228.172 56.6471 229.146C56.2814 230.116 55.7534 230.857 55.0631 231.371C54.3728 231.881 53.5428 232.135 52.573 232.135ZM52.573 230.49C53.4277 230.49 54.0954 230.073 54.5762 229.238C55.061 228.404 55.3035 227.198 55.3035 225.62C55.3035 224.573 55.1925 223.687 54.9706 222.964C54.7529 222.237 54.4385 221.686 54.0276 221.312C53.6208 220.934 53.136 220.745 52.573 220.745C51.7225 220.745 51.0548 221.164 50.5699 222.002C50.085 222.841 49.8406 224.047 49.8364 225.62C49.8364 226.672 49.9453 227.562 50.1631 228.289C50.385 229.012 50.6993 229.561 51.1061 229.935C51.5129 230.305 52.0019 230.49 52.573 230.49Z" fill="#0F0F0F"/>
<path opacity="0.5" d="M40.0283 189.032C39.4654 189.024 38.9106 188.921 38.3641 188.724C37.8218 188.527 37.3287 188.198 36.8849 187.738C36.4411 187.278 36.0857 186.659 35.8186 185.883C35.5556 185.106 35.4241 184.136 35.4241 182.973C35.4241 181.872 35.533 180.894 35.7508 180.04C35.9727 179.185 36.2911 178.464 36.7062 177.876C37.1212 177.285 37.6225 176.835 38.2101 176.526C38.7976 176.218 39.4571 176.064 40.1885 176.064C40.9405 176.064 41.6082 176.212 42.1917 176.508C42.7752 176.804 43.2477 177.213 43.6093 177.734C43.975 178.256 44.2072 178.85 44.3058 179.516H42.4259C42.2985 178.99 42.0458 178.56 41.6678 178.228C41.2898 177.895 40.7967 177.728 40.1885 177.728C39.264 177.728 38.5429 178.131 38.0252 178.936C37.5115 179.742 37.2527 180.861 37.2485 182.295H37.341C37.5588 181.938 37.8259 181.634 38.1423 181.383C38.4628 181.129 38.8202 180.933 39.2147 180.798C39.6133 180.658 40.0324 180.588 40.4721 180.588C41.2035 180.588 41.865 180.767 42.4567 181.124C43.0525 181.478 43.5271 181.967 43.8805 182.591C44.2339 183.216 44.4105 183.931 44.4105 184.736C44.4105 185.542 44.2277 186.271 43.862 186.924C43.5004 187.578 42.9909 188.095 42.3334 188.477C41.676 188.856 40.9076 189.04 40.0283 189.032ZM40.0221 187.43C40.507 187.43 40.9405 187.311 41.3226 187.072C41.7048 186.834 42.0068 186.513 42.2287 186.111C42.4506 185.708 42.5615 185.258 42.5615 184.761C42.5615 184.276 42.4526 183.834 42.2348 183.436C42.0212 183.037 41.7253 182.721 41.3473 182.487C40.9734 182.252 40.546 182.135 40.0653 182.135C39.6996 182.135 39.3606 182.205 39.0483 182.345C38.7401 182.484 38.4689 182.678 38.2347 182.924C38.0005 183.171 37.8156 183.454 37.68 183.775C37.5485 184.091 37.4828 184.426 37.4828 184.779C37.4828 185.252 37.5917 185.69 37.8094 186.092C38.0313 186.495 38.3333 186.819 38.7155 187.066C39.1017 187.308 39.5373 187.43 40.0221 187.43ZM52.5379 189.069C51.5641 189.065 50.732 188.808 50.0417 188.299C49.3514 187.789 48.8233 187.048 48.4576 186.074C48.0919 185.1 47.9091 183.927 47.9091 182.554C47.9091 181.186 48.0919 180.017 48.4576 179.047C48.8275 178.078 49.3575 177.338 50.0478 176.828C50.7422 176.319 51.5723 176.064 52.5379 176.064C53.5035 176.064 54.3315 176.321 55.0218 176.835C55.7121 177.344 56.2401 178.084 56.6058 179.053C56.9756 180.019 57.1605 181.186 57.1605 182.554C57.1605 183.931 56.9777 185.106 56.612 186.08C56.2463 187.05 55.7183 187.791 55.0279 188.305C54.3376 188.814 53.5076 189.069 52.5379 189.069ZM52.5379 187.424C53.3926 187.424 54.0603 187.006 54.541 186.172C55.0259 185.338 55.2683 184.132 55.2683 182.554C55.2683 181.507 55.1574 180.621 54.9355 179.898C54.7177 179.171 54.4034 178.62 53.9925 178.246C53.5857 177.868 53.1008 177.679 52.5379 177.679C51.6873 177.679 51.0196 178.098 50.5347 178.936C50.0499 179.775 49.8054 180.981 49.8013 182.554C49.8013 183.606 49.9102 184.496 50.128 185.223C50.3498 185.946 50.6642 186.495 51.071 186.869C51.4778 187.239 51.9667 187.424 52.5379 187.424Z" fill="#0F0F0F"/>
<path opacity="0.5" d="M39.9543 145.966C39.0709 145.966 38.2902 145.814 37.6122 145.51C36.9383 145.206 36.4103 144.787 36.0282 144.253C35.646 143.718 35.457 143.11 35.4611 142.428C35.457 141.894 35.5659 141.403 35.7878 140.955C36.0138 140.503 36.3199 140.127 36.7062 139.827C37.0924 139.523 37.5239 139.33 38.0005 139.248V139.174C37.3718 139.022 36.8685 138.685 36.4904 138.163C36.1124 137.641 35.9254 137.041 35.9296 136.363C35.9254 135.718 36.096 135.143 36.4411 134.638C36.7904 134.128 37.2691 133.727 37.8772 133.436C38.4854 133.144 39.1777 132.998 39.9543 132.998C40.7227 132.998 41.4089 133.146 42.0129 133.442C42.6211 133.734 43.0998 134.134 43.449 134.644C43.7983 135.149 43.975 135.722 43.9791 136.363C43.975 137.041 43.7819 137.641 43.3997 138.163C43.0176 138.685 42.5204 139.022 41.9082 139.174V139.248C42.3807 139.33 42.806 139.523 43.184 139.827C43.5661 140.127 43.8702 140.503 44.0962 140.955C44.3263 141.403 44.4434 141.894 44.4475 142.428C44.4434 143.11 44.2503 143.718 43.8682 144.253C43.486 144.787 42.956 145.206 42.278 145.51C41.6041 145.814 40.8295 145.966 39.9543 145.966ZM39.9543 144.407C40.4762 144.407 40.9282 144.32 41.3103 144.148C41.6924 143.971 41.9883 143.727 42.1978 143.414C42.4074 143.098 42.5142 142.728 42.5184 142.305C42.5142 141.865 42.3992 141.477 42.1732 141.14C41.9513 140.803 41.6493 140.538 41.2672 140.345C40.885 140.152 40.4474 140.055 39.9543 140.055C39.4571 140.055 39.0154 140.152 38.6292 140.345C38.2429 140.538 37.9389 140.803 37.717 141.14C37.4951 141.477 37.3862 141.865 37.3903 142.305C37.3862 142.728 37.4869 143.098 37.6923 143.414C37.9019 143.727 38.1998 143.971 38.586 144.148C38.9723 144.32 39.4284 144.407 39.9543 144.407ZM39.9543 138.533C40.3734 138.533 40.7453 138.449 41.0699 138.28C41.3945 138.112 41.6493 137.877 41.8342 137.577C42.0232 137.278 42.1198 136.926 42.1239 136.524C42.1198 136.129 42.0253 135.784 41.8404 135.488C41.6596 135.192 41.4069 134.964 41.0823 134.804C40.7576 134.64 40.3817 134.557 39.9543 134.557C39.5188 134.557 39.1366 134.64 38.8079 134.804C38.4833 134.964 38.2306 135.192 38.0498 135.488C37.869 135.784 37.7807 136.129 37.7848 136.524C37.7807 136.926 37.8711 137.278 38.056 137.577C38.2409 137.877 38.4956 138.112 38.8202 138.28C39.149 138.449 39.527 138.533 39.9543 138.533ZM52.5379 146.003C51.5641 145.999 50.732 145.742 50.0417 145.233C49.3514 144.723 48.8233 143.981 48.4576 143.008C48.0919 142.034 47.9091 140.861 47.9091 139.488C47.9091 138.12 48.0919 136.951 48.4576 135.981C48.8275 135.011 49.3575 134.272 50.0478 133.762C50.7422 133.253 51.5723 132.998 52.5379 132.998C53.5035 132.998 54.3315 133.255 55.0218 133.768C55.7121 134.278 56.2401 135.018 56.6058 135.987C56.9756 136.953 57.1605 138.12 57.1605 139.488C57.1605 140.865 56.9777 142.04 56.612 143.014C56.2463 143.983 55.7183 144.725 55.0279 145.239C54.3376 145.748 53.5076 146.003 52.5379 146.003ZM52.5379 144.357C53.3926 144.357 54.0603 143.94 54.541 143.106C55.0259 142.272 55.2683 141.066 55.2683 139.488C55.2683 138.44 55.1574 137.555 54.9355 136.832C54.7177 136.104 54.4034 135.554 53.9925 135.18C53.5857 134.802 53.1008 134.613 52.5379 134.613C51.6873 134.613 51.0196 135.032 50.5347 135.87C50.0499 136.708 49.8054 137.914 49.8013 139.488C49.8013 140.54 49.9102 141.43 50.128 142.157C50.3498 142.88 50.6642 143.429 51.071 143.803C51.4778 144.172 51.9667 144.357 52.5379 144.357Z" fill="#0F0F0F"/>
<path opacity="0.5" d="M31.0223 90.1044V102.727H29.1116V92.0151H29.0376L26.0175 93.9874V92.163L29.167 90.1044H31.0223ZM40.3191 102.937C39.3453 102.933 38.5132 102.676 37.8229 102.166C37.1326 101.657 36.6046 100.915 36.2389 99.9414C35.8732 98.9676 35.6903 97.7944 35.6903 96.422C35.6903 95.0537 35.8732 93.8847 36.2389 92.915C36.6087 91.9453 37.1388 91.2056 37.8291 90.6961C38.5235 90.1866 39.3535 89.9318 40.3191 89.9318C41.2847 89.9318 42.1127 90.1887 42.803 90.7023C43.4933 91.2118 44.0213 91.9514 44.387 92.9211C44.7569 93.8868 44.9418 95.0537 44.9418 96.422C44.9418 97.7985 44.7589 98.9737 44.3932 99.9476C44.0275 100.917 43.4995 101.659 42.8092 102.173C42.1189 102.682 41.2889 102.937 40.3191 102.937ZM40.3191 101.291C41.1738 101.291 41.8415 100.874 42.3223 100.04C42.8071 99.2059 43.0496 97.9999 43.0496 96.422C43.0496 95.3742 42.9386 94.4887 42.7167 93.7655C42.499 93.0383 42.1846 92.4876 41.7737 92.1137C41.3669 91.7357 40.8821 91.5467 40.3191 91.5467C39.4686 91.5467 38.8008 91.9658 38.316 92.804C37.8311 93.6423 37.5866 94.8483 37.5825 96.422C37.5825 97.4739 37.6914 98.3635 37.9092 99.0908C38.1311 99.814 38.4454 100.363 38.8522 100.736C39.259 101.106 39.748 101.291 40.3191 101.291ZM53.0105 102.937C52.0367 102.933 51.2046 102.676 50.5143 102.166C49.824 101.657 49.296 100.915 48.9303 99.9414C48.5646 98.9676 48.3817 97.7944 48.3817 96.422C48.3817 95.0537 48.5646 93.8847 48.9303 92.915C49.3001 91.9453 49.8302 91.2056 50.5205 90.6961C51.2149 90.1866 52.0449 89.9318 53.0105 89.9318C53.9762 89.9318 54.8041 90.1887 55.4944 90.7023C56.1848 91.2118 56.7128 91.9514 57.0785 92.9211C57.4483 93.8868 57.6332 95.0537 57.6332 96.422C57.6332 97.7985 57.4503 98.9737 57.0846 99.9476C56.7189 100.917 56.1909 101.659 55.5006 102.173C54.8103 102.682 53.9803 102.937 53.0105 102.937ZM53.0105 101.291C53.8652 101.291 54.5329 100.874 55.0137 100.04C55.4985 99.2059 55.741 97.9999 55.741 96.422C55.741 95.3742 55.63 94.4887 55.4081 93.7655C55.1904 93.0383 54.876 92.4876 54.4651 92.1137C54.0583 91.7357 53.5735 91.5467 53.0105 91.5467C52.16 91.5467 51.4923 91.9658 51.0074 92.804C50.5225 93.6423 50.2781 94.8483 50.2739 96.422C50.2739 97.4739 50.3828 98.3635 50.6006 99.0908C50.8225 99.814 51.1368 100.363 51.5436 100.736C51.9504 101.106 52.4394 101.291 53.0105 101.291Z" fill="#0F0F0F"/>
<path d="M27.2825 47.5205V29.4878H39.0108V32.2262H30.5492V37.1218H38.4033V39.8601H30.5492V44.7821H39.0812V47.5205H27.2825ZM42.2026 47.5205V33.996H45.2492V36.2941H45.4076C45.6894 35.5193 46.1561 34.9147 46.8076 34.4803C47.4592 34.04 48.237 33.8199 49.141 33.8199C50.0567 33.8199 50.8286 34.043 51.4567 34.4891C52.0907 34.9293 52.5368 35.531 52.7951 36.2941H52.9359C53.2353 35.5427 53.7401 34.944 54.4504 34.4979C55.1665 34.0459 56.0148 33.8199 56.995 33.8199C58.2395 33.8199 59.255 34.2132 60.0416 34.9998C60.8282 35.7864 61.2215 36.9339 61.2215 38.4425V47.5205H58.0252V38.9356C58.0252 38.0962 57.8022 37.4828 57.3561 37.0954C56.9099 36.7021 56.364 36.5054 55.7183 36.5054C54.9494 36.5054 54.3477 36.7461 53.9133 37.2274C53.4848 37.7029 53.2705 38.3222 53.2705 39.0853V47.5205H50.1447V38.8035C50.1447 38.105 49.9334 37.5474 49.5108 37.1306C49.094 36.7138 48.5481 36.5054 47.8731 36.5054C47.4152 36.5054 46.9984 36.6228 46.6227 36.8576C46.2471 37.0866 45.9477 37.4123 45.7246 37.835C45.5016 38.2518 45.39 38.739 45.39 39.2966V47.5205H42.2026ZM68.3469 47.7935C67.4899 47.7935 66.718 47.6408 66.0312 47.3356C65.3503 47.0245 64.8102 46.5666 64.4111 45.962C64.0178 45.3574 63.8211 44.6119 63.8211 43.7255C63.8211 42.9624 63.962 42.3314 64.2438 41.8325C64.5255 41.3335 64.91 40.9344 65.3972 40.635C65.8844 40.3356 66.4333 40.1096 67.0438 39.957C67.6601 39.7985 68.297 39.684 68.9545 39.6136C69.7469 39.5314 70.3897 39.458 70.8828 39.3935C71.3758 39.323 71.7339 39.2174 71.957 39.0765C72.1859 38.9297 72.3004 38.7038 72.3004 38.3985V38.3457C72.3004 37.6824 72.1037 37.1687 71.7104 36.8048C71.3171 36.4409 70.7507 36.2589 70.0111 36.2589C69.2304 36.2589 68.6111 36.4291 68.1532 36.7696C67.7012 37.11 67.396 37.5121 67.2375 37.9759L64.2614 37.5532C64.4962 36.7314 64.8836 36.0446 65.4237 35.4929C65.9637 34.9352 66.6241 34.5184 67.4048 34.2425C68.1855 33.9608 69.0484 33.8199 69.9935 33.8199C70.645 33.8199 71.2937 33.8962 71.9394 34.0488C72.5851 34.2015 73.175 34.4539 73.7092 34.8061C74.2433 35.1524 74.6719 35.6249 74.9947 36.2237C75.3234 36.8224 75.4878 37.5708 75.4878 38.4689V47.5205H72.4236V45.6626H72.318C72.1243 46.0383 71.8513 46.3905 71.4991 46.7193C71.1528 47.0421 70.7155 47.3033 70.1872 47.5029C69.6647 47.6966 69.0513 47.7935 68.3469 47.7935ZM69.1746 45.4513C69.8144 45.4513 70.3691 45.3251 70.8387 45.0727C71.3083 44.8144 71.6693 44.474 71.9218 44.0513C72.18 43.6287 72.3092 43.1679 72.3092 42.6689V41.0752C72.2094 41.1574 72.0392 41.2337 71.7985 41.3042C71.5637 41.3746 71.2995 41.4362 71.006 41.4891C70.7125 41.5419 70.422 41.5889 70.1343 41.63C69.8467 41.671 69.5972 41.7063 69.3859 41.7356C68.9104 41.8002 68.4849 41.9058 68.1092 42.0526C67.7335 42.1993 67.4371 42.4048 67.2199 42.6689C67.0027 42.9272 66.8941 43.2618 66.8941 43.6727C66.8941 44.2597 67.1083 44.7029 67.5369 45.0023C67.9654 45.3016 68.5113 45.4513 69.1746 45.4513ZM78.6928 47.5205V33.996H81.8802V47.5205H78.6928ZM80.2953 32.0765C79.7905 32.0765 79.3561 31.9092 78.9922 31.5746C78.6282 31.2342 78.4463 30.8262 78.4463 30.3507C78.4463 29.8694 78.6282 29.4614 78.9922 29.1268C79.3561 28.7864 79.7905 28.6161 80.2953 28.6161C80.806 28.6161 81.2404 28.7864 81.5985 29.1268C81.9624 29.4614 82.1444 29.8694 82.1444 30.3507C82.1444 30.8262 81.9624 31.2342 81.5985 31.5746C81.2404 31.9092 80.806 32.0765 80.2953 32.0765ZM88.3453 29.4878V47.5205H85.1579V29.4878H88.3453ZM102.312 37.5708L99.4066 37.8878C99.3244 37.5943 99.1806 37.3184 98.9752 37.0601C98.7756 36.8019 98.5056 36.5935 98.1651 36.435C97.8246 36.2765 97.4079 36.1973 96.9148 36.1973C96.2515 36.1973 95.6938 36.3411 95.2418 36.6287C94.7957 36.9163 94.5756 37.2891 94.5815 37.7469C94.5756 38.1402 94.7194 38.4601 95.0129 38.7067C95.3123 38.9532 95.8054 39.1557 96.4922 39.3142L98.7991 39.8073C100.079 40.0832 101.03 40.5205 101.652 41.1193C102.28 41.718 102.597 42.5016 102.603 43.4702C102.597 44.3214 102.347 45.0727 101.854 45.7243C101.367 46.37 100.689 46.8748 99.8204 47.2387C98.9517 47.6027 97.9538 47.7847 96.8267 47.7847C95.1714 47.7847 93.8389 47.4383 92.8293 46.7457C91.8196 46.0471 91.2179 45.0756 91.0242 43.8312L94.1324 43.5318C94.2733 44.1423 94.5727 44.6031 95.0305 44.9142C95.4884 45.2253 96.0842 45.3809 96.8179 45.3809C97.5752 45.3809 98.1827 45.2253 98.6406 44.9142C99.1043 44.6031 99.3362 44.2186 99.3362 43.7608C99.3362 43.3733 99.1865 43.0534 98.8871 42.801C98.5936 42.5486 98.1358 42.3549 97.5135 42.2199L95.2066 41.7356C93.9093 41.4656 92.9496 41.0107 92.3274 40.3708C91.7052 39.7251 91.397 38.9092 91.4029 37.923C91.397 37.0895 91.623 36.3675 92.0808 35.757C92.5446 35.1407 93.1873 34.6652 94.0091 34.3306C94.8368 33.9901 95.7907 33.8199 96.8708 33.8199C98.4557 33.8199 99.703 34.1574 100.613 34.8325C101.529 35.5075 102.095 36.4203 102.312 37.5708ZM122.071 37.5708L119.165 37.8878C119.083 37.5943 118.939 37.3184 118.734 37.0601C118.534 36.8019 118.264 36.5935 117.924 36.435C117.583 36.2765 117.166 36.1973 116.673 36.1973C116.01 36.1973 115.452 36.3411 115 36.6287C114.554 36.9163 114.334 37.2891 114.34 37.7469C114.334 38.1402 114.478 38.4601 114.771 38.7067C115.071 38.9532 115.564 39.1557 116.251 39.3142L118.558 39.8073C119.837 40.0832 120.788 40.5205 121.41 41.1193C122.038 41.718 122.355 42.5016 122.361 43.4702C122.355 44.3214 122.106 45.0727 121.613 45.7243C121.126 46.37 120.448 46.8748 119.579 47.2387C118.71 47.6027 117.712 47.7847 116.585 47.7847C114.93 47.7847 113.597 47.4383 112.588 46.7457C111.578 46.0471 110.976 45.0756 110.783 43.8312L113.891 43.5318C114.032 44.1423 114.331 44.6031 114.789 44.9142C115.247 45.2253 115.843 45.3809 116.576 45.3809C117.334 45.3809 117.941 45.2253 118.399 44.9142C118.863 44.6031 119.095 44.2186 119.095 43.7608C119.095 43.3733 118.945 43.0534 118.646 42.801C118.352 42.5486 117.894 42.3549 117.272 42.2199L114.965 41.7356C113.668 41.4656 112.708 41.0107 112.086 40.3708C111.464 39.7251 111.155 38.9092 111.161 37.923C111.155 37.0895 111.381 36.3675 111.839 35.757C112.303 35.1407 112.946 34.6652 113.768 34.3306C114.595 33.9901 115.549 33.8199 116.629 33.8199C118.214 33.8199 119.462 34.1574 120.371 34.8325C121.287 35.5075 121.854 36.4203 122.071 37.5708ZM130.977 47.7847C129.621 47.7847 128.45 47.5029 127.464 46.9394C126.484 46.37 125.729 45.5658 125.201 44.5268C124.673 43.4819 124.408 42.2522 124.408 40.8375C124.408 39.4463 124.673 38.2253 125.201 37.1746C125.735 36.118 126.481 35.2962 127.437 34.7092C128.394 34.1163 129.518 33.8199 130.81 33.8199C131.643 33.8199 132.43 33.9549 133.169 34.2249C133.915 34.4891 134.572 34.9 135.142 35.4576C135.717 36.0153 136.169 36.7256 136.498 37.5884C136.826 38.4455 136.991 39.4669 136.991 40.6526V41.63H125.905V39.4815H133.935C133.93 38.871 133.798 38.3281 133.539 37.8526C133.281 37.3713 132.92 36.9926 132.456 36.7168C131.998 36.4409 131.464 36.3029 130.854 36.3029C130.202 36.3029 129.63 36.4614 129.137 36.7784C128.644 37.0895 128.259 37.5004 127.983 38.0111C127.713 38.5159 127.575 39.0706 127.569 39.6752V41.5507C127.569 42.3373 127.713 43.0123 128.001 43.5759C128.289 44.1335 128.691 44.562 129.207 44.8614C129.724 45.1549 130.328 45.3016 131.021 45.3016C131.485 45.3016 131.904 45.2371 132.28 45.1079C132.656 44.9729 132.982 44.7763 133.258 44.518C133.533 44.2597 133.742 43.9398 133.883 43.5583L136.859 43.8928C136.671 44.6794 136.313 45.3662 135.785 45.9532C135.262 46.5343 134.593 46.9863 133.777 47.3092C132.961 47.6262 132.028 47.7847 130.977 47.7847ZM142.875 39.596V47.5205H139.687V33.996H142.734V36.2941H142.892C143.203 35.5369 143.7 34.9352 144.38 34.4891C145.067 34.043 145.915 33.8199 146.925 33.8199C147.858 33.8199 148.671 34.0195 149.364 34.4186C150.063 34.8178 150.603 35.396 150.984 36.1532C151.372 36.9105 151.562 37.8291 151.557 38.9092V47.5205H148.369V39.4023C148.369 38.4983 148.134 37.791 147.665 37.2803C147.201 36.7696 146.558 36.5142 145.736 36.5142C145.179 36.5142 144.683 36.6375 144.248 36.884C143.82 37.1247 143.482 37.474 143.236 37.9318C142.995 38.3897 142.875 38.9444 142.875 39.596ZM161.55 33.996V36.4614H153.775V33.996H161.55ZM155.695 30.7558H158.882V43.4526C158.882 43.8811 158.947 44.2098 159.076 44.4388C159.211 44.6618 159.387 44.8144 159.604 44.8966C159.822 44.9788 160.062 45.0199 160.326 45.0199C160.526 45.0199 160.708 45.0052 160.872 44.9759C161.042 44.9465 161.172 44.9201 161.26 44.8966L161.797 47.3884C161.627 47.4471 161.383 47.5117 161.066 47.5821C160.755 47.6526 160.373 47.6937 159.921 47.7054C159.123 47.7289 158.404 47.6086 157.764 47.3444C157.124 47.0744 156.616 46.6576 156.241 46.0941C155.871 45.5306 155.689 44.8262 155.695 43.9809V30.7558Z" fill="#0F0F0F"/>
<rect x="372.984" y="22.3303" width="68.0668" height="31.8792" rx="15.9396" fill="#02BD6E"/>
<path d="M403.13 44.3002L408.06 34.5417V34.4625H402.338V32.7077H410.234V34.5021L405.309 44.3002H403.13ZM412.061 44.3002V42.7832L416.085 38.8379C416.47 38.4492 416.791 38.104 417.047 37.8021C417.304 37.5002 417.496 37.2077 417.625 36.9247C417.753 36.6417 417.817 36.3398 417.817 36.0191C417.817 35.653 417.734 35.3398 417.568 35.0794C417.402 34.8153 417.174 34.6115 416.883 34.4681C416.593 34.3247 416.263 34.253 415.893 34.253C415.512 34.253 415.178 34.3323 414.891 34.4908C414.604 34.6455 414.381 34.8662 414.223 35.153C414.068 35.4398 413.991 35.7813 413.991 36.1775H411.993C411.993 35.4417 412.161 34.8021 412.497 34.2587C412.832 33.7153 413.295 33.2945 413.883 32.9964C414.476 32.6983 415.155 32.5492 415.921 32.5492C416.698 32.5492 417.381 32.6945 417.97 32.9851C418.559 33.2757 419.015 33.6738 419.34 34.1794C419.668 34.6851 419.832 35.2624 419.832 35.9115C419.832 36.3455 419.749 36.7719 419.583 37.1907C419.417 37.6096 419.125 38.0738 418.706 38.5832C418.291 39.0926 417.708 39.7096 416.957 40.4341L414.959 42.4662V42.5455H420.008V44.3002H412.061ZM428.159 42.1266V41.5153C428.159 41.0662 428.253 40.653 428.442 40.2756C428.634 39.8983 428.913 39.5945 429.279 39.3643C429.646 39.1341 430.089 39.019 430.61 39.019C431.146 39.019 431.595 39.1341 431.957 39.3643C432.319 39.5907 432.593 39.8926 432.778 40.27C432.966 40.6473 433.061 41.0624 433.061 41.5153V42.1266C433.061 42.5756 432.966 42.9889 432.778 43.3662C432.589 43.7436 432.312 44.0473 431.946 44.2775C431.583 44.5077 431.138 44.6228 430.61 44.6228C430.081 44.6228 429.634 44.5077 429.268 44.2775C428.902 44.0473 428.625 43.7436 428.436 43.3662C428.251 42.9889 428.159 42.5756 428.159 42.1266ZM429.636 41.5153V42.1266C429.636 42.4247 429.708 42.6983 429.851 42.9473C429.995 43.1964 430.247 43.3209 430.61 43.3209C430.976 43.3209 431.227 43.1983 431.363 42.953C431.502 42.7039 431.572 42.4285 431.572 42.1266V41.5153C431.572 41.2134 431.506 40.9379 431.374 40.6889C431.242 40.436 430.987 40.3096 430.61 40.3096C430.255 40.3096 430.004 40.436 429.857 40.6889C429.71 40.9379 429.636 41.2134 429.636 41.5153ZM422.266 35.4926V34.8813C422.266 34.4285 422.363 34.0134 422.555 33.636C422.747 33.2587 423.027 32.9568 423.393 32.7304C423.759 32.5002 424.202 32.3851 424.723 32.3851C425.255 32.3851 425.702 32.5002 426.064 32.7304C426.43 32.9568 426.706 33.2587 426.891 33.636C427.076 34.0134 427.168 34.4285 427.168 34.8813V35.4926C427.168 35.9455 427.074 36.3606 426.885 36.7379C426.7 37.1115 426.425 37.4115 426.059 37.6379C425.693 37.8643 425.247 37.9775 424.723 37.9775C424.191 37.9775 423.742 37.8643 423.376 37.6379C423.013 37.4115 422.738 37.1096 422.549 36.7323C422.361 36.3549 422.266 35.9417 422.266 35.4926ZM423.755 34.8813V35.4926C423.755 35.7945 423.825 36.07 423.964 36.3191C424.108 36.5643 424.361 36.687 424.723 36.687C425.085 36.687 425.334 36.5643 425.47 36.3191C425.61 36.07 425.679 35.7945 425.679 35.4926V34.8813C425.679 34.5794 425.613 34.304 425.481 34.0549C425.349 33.8021 425.096 33.6757 424.723 33.6757C424.364 33.6757 424.113 33.8021 423.97 34.0549C423.827 34.3077 423.755 34.5832 423.755 34.8813ZM422.912 44.3002L430.881 32.7077H432.296L424.327 44.3002H422.912Z" fill="white"/>
<path d="M382.723 41.0836C382.956 41.3171 383.335 41.3171 383.568 41.0836L388.923 35.7282L394.279 41.0836C394.512 41.3171 394.891 41.3171 395.124 41.0836C395.358 40.8502 395.358 40.4718 395.124 40.2384L389.346 34.4602C389.113 34.2268 388.734 34.2268 388.501 34.4602L382.723 40.2384C382.489 40.4718 382.489 40.8502 382.723 41.0836Z" fill="white"/>
<rect x="73.3242" y="311.033" width="369.799" height="1.59504" fill="#ECECEC"/>
<rect x="73.3242" y="267.967" width="369.799" height="1.59504" fill="#ECECEC"/>
<rect x="73.3242" y="224.901" width="369.799" height="1.59504" fill="#ECECEC"/>
<rect x="73.3242" y="181.835" width="369.799" height="1.59504" fill="#ECECEC"/>
<rect x="73.3242" y="138.769" width="369.799" height="1.59504" fill="#ECECEC"/>
<rect x="73.3242" y="97.2976" width="369.799" height="1.59504" fill="#ECECEC"/>
<path d="M130 266.681C105.31 273.884 76.5117 311.033 76.5117 311.033H443.122V138.769C443.122 138.769 419.473 134.553 405.328 138.769C369.372 149.485 394.951 171.122 358 177.621C350.005 179.027 349.92 179.404 342 177.621C320.356 172.746 324.325 204.257 303 198.135C292 194.977 290 193.632 279 198.135C259.325 206.189 262.951 217.697 242.809 224.5C231.272 228.397 223.261 220.898 211.629 224.5C189.977 231.206 195.437 258.995 174.5 267.682C157.457 274.753 147.712 261.514 130 266.681Z" fill="url(#paint0_linear_778_109)"/>
<path d="M76.5117 311.033C76.5117 311.033 103.65 274.655 129.425 267.372C146.825 262.454 159.02 274.298 175.723 267.372C195.889 259.01 190.891 231.322 211.629 224.504C223.898 220.47 232.584 228.981 244.699 224.504C264.345 217.244 261.106 204.683 281 198.135C291.516 194.673 292.86 195.077 303.5 198.135C324.937 204.296 319.242 172.718 341 177.621C348.92 179.405 352.002 179.013 360 177.621C397.129 171.156 370.061 149.217 406.272 138.768C420.1 134.779 443.122 138.768 443.122 138.768" stroke="#1179FC" stroke-width="1.59396"/>
<defs>
<linearGradient id="paint0_linear_778_109" x1="259.817" y1="138.769" x2="260.496" y2="339.077" gradientUnits="userSpaceOnUse">
<stop stop-color="#1179FC"/>
<stop offset="1" stop-color="#D5CBE7" stop-opacity="0"/>
</linearGradient>
</defs>
</svg>
