<svg width="216" height="75" viewBox="0 0 216 75" fill="none" xmlns="http://www.w3.org/2000/svg">
<rect width="215.236" height="74.5047" rx="9.19811" fill="white"/>
<circle cx="34.0331" cy="37.7124" r="19.316" fill="#EB5757"/>
<path d="M24.8352 37.7124C24.8352 42.7923 28.9533 46.9105 34.0333 46.9105C39.1133 46.9105 43.2314 42.7923 43.2314 37.7124C43.2314 32.6324 39.1133 28.5143 34.0333 28.5143C28.9533 28.5143 24.8352 32.6324 24.8352 37.7124ZM38.2007 37.4548C38.4456 37.6997 38.4679 38.0829 38.2675 38.353L38.2007 38.4303L34.5207 42.1104C34.2758 42.3553 33.8925 42.3775 33.6224 42.1771L33.545 42.1103L29.8658 38.4296C29.5964 38.1602 29.5965 37.7233 29.8659 37.454C30.1109 37.2092 30.4942 37.1869 30.7642 37.3873L30.8416 37.4542L33.3441 39.9578L33.3438 33.8027C33.3438 33.4535 33.6033 33.1649 33.94 33.1192L34.0337 33.1129C34.3829 33.1129 34.6716 33.3724 34.7172 33.7091L34.7235 33.8027L34.7238 39.956L37.2251 37.4548C37.47 37.2098 37.8533 37.1876 38.1233 37.388L38.2007 37.4548Z" fill="white"/>
<path d="M66.8659 25.717L64.6003 17.6896H66.1643L67.6106 23.5887H67.6851L69.2295 17.6896H70.6523L72.2005 23.5926H72.2711L73.7175 17.6896H75.2814L73.0158 25.717H71.5812L69.9742 20.0845H69.9115L68.3005 25.717H66.8659ZM77.4859 25.717H75.9337L78.7598 17.6896H80.555L83.3849 25.717H81.8328L79.6887 19.3358H79.626L77.4859 25.717ZM77.5368 22.5696H81.77V23.7376H77.5368V22.5696ZM85.3621 25.717V17.6896H88.3724C88.9891 17.6896 89.5065 17.7967 89.9246 18.011C90.3453 18.2253 90.6628 18.5258 90.877 18.9125C91.0939 19.2967 91.2024 19.7448 91.2024 20.257C91.2024 20.7717 91.0926 21.2186 90.8731 21.5975C90.6562 21.9738 90.3361 22.2651 89.9128 22.4716C89.4895 22.6754 88.9695 22.7773 88.3528 22.7773H86.2087V21.5701H88.1568C88.5174 21.5701 88.8127 21.5204 89.0426 21.4211C89.2726 21.3192 89.4424 21.1716 89.5522 20.9782C89.6646 20.7822 89.7207 20.5418 89.7207 20.257C89.7207 19.9721 89.6646 19.7291 89.5522 19.5279C89.4398 19.3241 89.2687 19.1699 89.0387 19.0654C88.8088 18.9583 88.5122 18.9047 88.149 18.9047H86.8163V25.717H85.3621ZM89.5091 22.0796L91.4963 25.717H89.8736L87.9216 22.0796H89.5091ZM93.4607 17.6896H95.2403L97.6234 23.5064H97.7175L100.101 17.6896H101.88V25.717H100.485V20.2021H100.41L98.1918 25.6935H97.1491L94.9306 20.1903H94.8561V25.717H93.4607V17.6896ZM109.444 17.6896H110.898V22.9341C110.898 23.509 110.762 24.0146 110.49 24.451C110.221 24.8874 109.842 25.2284 109.354 25.474C108.865 25.717 108.294 25.8386 107.641 25.8386C106.985 25.8386 106.413 25.717 105.924 25.474C105.435 25.2284 105.056 24.8874 104.787 24.451C104.518 24.0146 104.383 23.509 104.383 22.9341V17.6896H105.838V22.8126C105.838 23.1471 105.911 23.445 106.057 23.7063C106.206 23.9676 106.415 24.1727 106.684 24.3216C106.953 24.468 107.272 24.5411 107.641 24.5411C108.009 24.5411 108.328 24.468 108.597 24.3216C108.869 24.1727 109.078 23.9676 109.224 23.7063C109.371 23.445 109.444 23.1471 109.444 22.8126V17.6896ZM113.398 25.717V17.6896H116.409C117.025 17.6896 117.543 17.8046 117.961 18.0345C118.382 18.2645 118.699 18.5807 118.913 18.9831C119.13 19.3829 119.239 19.8376 119.239 20.3471C119.239 20.8619 119.13 21.3192 118.913 21.719C118.696 22.1188 118.376 22.4337 117.953 22.6636C117.53 22.891 117.008 23.0046 116.389 23.0046H114.394V21.8091H116.193C116.554 21.8091 116.849 21.7464 117.079 21.621C117.309 21.4956 117.479 21.3231 117.588 21.1036C117.701 20.8841 117.757 20.6319 117.757 20.3471C117.757 20.0623 117.701 19.8114 117.588 19.5945C117.479 19.3777 117.308 19.2091 117.075 19.0889C116.845 18.9661 116.548 18.9047 116.185 18.9047H114.853V25.717H113.398ZM125.079 25.717V17.6896H128.09C128.706 17.6896 129.224 17.7967 129.642 18.011C130.062 18.2253 130.38 18.5258 130.594 18.9125C130.811 19.2967 130.92 19.7448 130.92 20.257C130.92 20.7717 130.81 21.2186 130.59 21.5975C130.373 21.9738 130.053 22.2651 129.63 22.4716C129.207 22.6754 128.687 22.7773 128.07 22.7773H125.926V21.5701H127.874C128.235 21.5701 128.53 21.5204 128.76 21.4211C128.99 21.3192 129.16 21.1716 129.269 20.9782C129.382 20.7822 129.438 20.5418 129.438 20.257C129.438 19.9721 129.382 19.7291 129.269 19.5279C129.157 19.3241 128.986 19.1699 128.756 19.0654C128.526 18.9583 128.229 18.9047 127.866 18.9047H126.533V25.717H125.079ZM129.226 22.0796L131.214 25.717H129.591L127.639 22.0796H129.226ZM133.178 25.717V17.6896H138.399V18.9086H134.632V21.0879H138.128V22.3069H134.632V24.498H138.43V25.717H133.178ZM147.673 20.3981H146.207C146.166 20.1577 146.089 19.9447 145.976 19.7592C145.864 19.571 145.724 19.4116 145.557 19.281C145.39 19.1503 145.199 19.0523 144.985 18.987C144.773 18.9191 144.544 18.8851 144.299 18.8851C143.862 18.8851 143.475 18.9948 143.138 19.2143C142.801 19.4312 142.537 19.75 142.347 20.1707C142.156 20.5888 142.06 21.0997 142.06 21.7033C142.06 22.3174 142.156 22.8348 142.347 23.2555C142.54 23.6736 142.804 23.9898 143.138 24.2041C143.475 24.4157 143.861 24.5215 144.295 24.5215C144.535 24.5215 144.76 24.4902 144.969 24.4275C145.181 24.3621 145.37 24.2668 145.537 24.1413C145.707 24.0159 145.849 23.8617 145.964 23.6788C146.082 23.4959 146.163 23.2869 146.207 23.0517L147.673 23.0595C147.619 23.441 147.5 23.799 147.317 24.1335C147.136 24.468 146.9 24.7633 146.607 25.0193C146.315 25.2728 145.972 25.4714 145.58 25.6151C145.188 25.7562 144.753 25.8268 144.275 25.8268C143.57 25.8268 142.94 25.6635 142.386 25.3368C141.832 25.0102 141.395 24.5385 141.077 23.9218C140.758 23.3051 140.598 22.5656 140.598 21.7033C140.598 20.8384 140.759 20.0989 141.081 19.4848C141.402 18.8681 141.84 18.3964 142.394 18.0698C142.948 17.7432 143.575 17.5798 144.275 17.5798C144.722 17.5798 145.137 17.6426 145.522 17.768C145.906 17.8934 146.248 18.0776 146.548 18.3207C146.849 18.5611 147.096 18.8563 147.289 19.2065C147.485 19.554 147.613 19.9512 147.673 20.3981ZM149.925 25.717V17.6896H155.146V18.9086H151.379V21.0879H154.875V22.3069H151.379V24.498H155.177V25.717H149.925ZM159.003 17.6896V25.717H157.549V17.6896H159.003ZM162.572 17.6896L164.661 24.0081H164.744L166.829 17.6896H168.428L165.598 25.717H163.803L160.977 17.6896H162.572ZM170.405 25.717V17.6896H175.626V18.9086H171.859V21.0879H175.356V22.3069H171.859V24.498H175.657V25.717H170.405ZM180.75 25.717H178.029V17.6896H180.805C181.602 17.6896 182.286 17.8503 182.858 18.1717C183.433 18.4905 183.875 18.9491 184.183 19.5475C184.492 20.1459 184.646 20.8619 184.646 21.6955C184.646 22.5317 184.49 23.2503 184.179 23.8513C183.871 24.4523 183.426 24.9135 182.843 25.2349C182.263 25.5563 181.565 25.717 180.75 25.717ZM179.484 24.4588H180.679C181.238 24.4588 181.705 24.3569 182.078 24.1531C182.452 23.9467 182.733 23.6396 182.921 23.232C183.109 22.8217 183.203 22.3096 183.203 21.6955C183.203 21.0814 183.109 20.5718 182.921 20.1668C182.733 19.7592 182.455 19.4547 182.086 19.2535C181.72 19.0497 181.266 18.9478 180.722 18.9478H179.484V24.4588Z" fill="#0F0F0F" fill-opacity="0.5"/>
<path d="M71.691 56.9318C70.9227 56.9266 70.1728 56.7933 69.4411 56.532C68.7094 56.2654 68.0509 55.8343 67.4656 55.2385C66.8803 54.6375 66.4151 53.8405 66.0702 52.8475C65.7253 51.8493 65.5554 50.6133 65.5607 49.1395C65.5607 47.765 65.707 46.5395 65.9997 45.4629C66.2923 44.3863 66.713 43.4769 67.2618 42.7348C67.8105 41.9875 68.4717 41.4178 69.2451 41.0258C70.0238 40.6339 70.894 40.4379 71.8556 40.4379C72.8643 40.4379 73.758 40.6365 74.5367 41.0337C75.3206 41.4309 75.953 41.9744 76.4338 42.6643C76.9146 43.3489 77.2125 44.1224 77.3275 44.9847H74.4661C74.3198 44.368 74.0193 43.8767 73.5646 43.5109C73.1151 43.1398 72.5455 42.9543 71.8556 42.9543C70.7424 42.9543 69.8853 43.4377 69.2843 44.4046C68.6885 45.3714 68.388 46.6989 68.3828 48.3869H68.4926C68.7486 47.927 69.0805 47.5325 69.4882 47.2032C69.8958 46.874 70.3557 46.6205 70.8679 46.4428C71.3853 46.2599 71.9314 46.1684 72.5063 46.1684C73.447 46.1684 74.291 46.3931 75.0384 46.8426C75.7909 47.2921 76.3867 47.9114 76.8257 48.7005C77.2647 49.4844 77.4816 50.3834 77.4764 51.3972C77.4816 52.4529 77.2412 53.4015 76.7552 54.2429C76.2691 55.0791 75.5924 55.7376 74.7248 56.2184C73.8573 56.6992 72.846 56.937 71.691 56.9318ZM71.6753 54.58C72.245 54.58 72.7545 54.4415 73.204 54.1645C73.6534 53.8875 74.0088 53.5138 74.2701 53.0435C74.5314 52.5731 74.6595 52.0453 74.6543 51.4599C74.6595 50.8851 74.534 50.3651 74.278 49.8999C74.0271 49.4348 73.6796 49.0663 73.2353 48.7946C72.7911 48.5228 72.2842 48.3869 71.7145 48.3869C71.2912 48.3869 70.8966 48.4679 70.5308 48.63C70.1649 48.792 69.8461 49.0167 69.5744 49.3041C69.3026 49.5864 69.0883 49.9156 68.9316 50.2919C68.78 50.663 68.7016 51.0601 68.6964 51.4835C68.7016 52.0427 68.8323 52.5575 69.0883 53.0278C69.3444 53.4982 69.6972 53.8745 70.1467 54.1567C70.5961 54.4389 71.1057 54.58 71.6753 54.58ZM85.7077 56.9318C84.6624 56.9318 83.7269 56.7358 82.9012 56.3438C82.0755 55.9466 81.4196 55.4031 80.9335 54.7133C80.4527 54.0234 80.1966 53.2342 80.1653 52.3458H82.9874C83.0397 53.0043 83.3245 53.5426 83.8419 53.9607C84.3593 54.3736 84.9812 54.58 85.7077 54.58C86.2773 54.58 86.7843 54.4493 87.2285 54.188C87.6727 53.9267 88.0229 53.5635 88.279 53.0984C88.535 52.6332 88.6605 52.1028 88.6552 51.507C88.6605 50.9007 88.5324 50.3624 88.2711 49.8921C88.0098 49.4217 87.6518 49.0533 87.1971 48.7867C86.7425 48.515 86.2198 48.3791 85.6293 48.3791C85.1485 48.3739 84.6755 48.4627 84.2104 48.6456C83.7452 48.8286 83.3768 49.069 83.105 49.3669L80.4789 48.9357L81.3177 40.6574H90.6307V43.0876H83.7243L83.2618 47.3443H83.3559C83.6538 46.9942 84.0745 46.7041 84.618 46.4742C85.1615 46.239 85.7573 46.1214 86.4054 46.1214C87.3774 46.1214 88.245 46.3513 89.008 46.8112C89.771 47.2659 90.372 47.8931 90.811 48.6927C91.2501 49.4923 91.4696 50.4069 91.4696 51.4364C91.4696 52.4973 91.2239 53.4433 90.7327 54.2743C90.2466 55.1 89.5698 55.7507 88.7023 56.2262C87.84 56.6966 86.8418 56.9318 85.7077 56.9318ZM94.0957 56.7123V54.6113L99.6695 49.1474C100.203 48.6091 100.647 48.1309 101.002 47.7128C101.358 47.2947 101.624 46.8896 101.802 46.4977C101.979 46.1057 102.068 45.6876 102.068 45.2434C102.068 44.7364 101.953 44.3027 101.723 43.9421C101.493 43.5762 101.177 43.294 100.775 43.0954C100.372 42.8968 99.9151 42.7975 99.4029 42.7975C98.8751 42.7975 98.4126 42.9073 98.0154 43.1268C97.6182 43.341 97.3098 43.6468 97.0903 44.044C96.8761 44.4412 96.7689 44.9141 96.7689 45.4629H94.0016C94.0016 44.4438 94.2342 43.5579 94.6993 42.8054C95.1645 42.0528 95.8047 41.4701 96.62 41.0572C97.4405 40.6443 98.3812 40.4379 99.4421 40.4379C100.519 40.4379 101.465 40.6391 102.28 41.0415C103.095 41.4439 103.728 41.9953 104.177 42.6956C104.632 43.3959 104.859 44.1955 104.859 45.0944C104.859 45.6954 104.744 46.286 104.514 46.8661C104.284 47.4462 103.879 48.089 103.299 48.7946C102.724 49.5001 101.917 50.3546 100.877 51.358L98.1094 54.1723V54.2821H105.102V56.7123H94.0957ZM113.569 56.9318C112.44 56.9318 111.436 56.7384 110.558 56.3517C109.685 55.9649 108.996 55.4266 108.489 54.7368C107.982 54.0469 107.713 53.2499 107.681 52.3458H110.629C110.655 52.7796 110.799 53.1585 111.06 53.4825C111.321 53.8013 111.669 54.0495 112.103 54.2272C112.536 54.4049 113.022 54.4938 113.561 54.4938C114.136 54.4938 114.645 54.3945 115.089 54.1959C115.534 53.992 115.881 53.7098 116.132 53.3492C116.383 52.9886 116.506 52.5731 116.5 52.1028C116.506 51.6167 116.38 51.1882 116.124 50.8171C115.868 50.4461 115.497 50.156 115.011 49.947C114.53 49.7379 113.95 49.6334 113.271 49.6334H111.852V47.3914H113.271C113.83 47.3914 114.319 47.2947 114.737 47.1013C115.16 46.9079 115.492 46.6362 115.732 46.286C115.973 45.9306 116.09 45.5204 116.085 45.0552C116.09 44.6006 115.988 44.206 115.779 43.8715C115.575 43.5318 115.285 43.2679 114.909 43.0797C114.538 42.8916 114.102 42.7975 113.6 42.7975C113.109 42.7975 112.654 42.8864 112.236 43.0641C111.818 43.2417 111.481 43.4952 111.225 43.8245C110.969 44.1485 110.833 44.5352 110.817 44.9847H108.018C108.039 44.0858 108.298 43.2966 108.794 42.6172C109.296 41.9326 109.965 41.3995 110.801 41.018C111.637 40.6313 112.576 40.4379 113.616 40.4379C114.687 40.4379 115.617 40.6391 116.406 41.0415C117.201 41.4387 117.815 41.9744 118.249 42.6486C118.682 43.3228 118.899 44.0675 118.899 44.8828C118.904 45.7869 118.638 46.5447 118.1 47.1562C117.567 47.7676 116.866 48.1674 115.999 48.3556V48.481C117.128 48.6378 117.993 49.0559 118.594 49.7353C119.2 50.4095 119.5 51.2483 119.495 52.2517C119.495 53.1506 119.239 53.9555 118.727 54.6662C118.22 55.3718 117.52 55.9257 116.626 56.3282C115.737 56.7306 114.718 56.9318 113.569 56.9318Z" fill="#0F0F0F"/>
</svg>
