<svg width="456" height="213" viewBox="0 0 456 213" fill="none" xmlns="http://www.w3.org/2000/svg">
<rect y="0.396179" width="455.001" height="212.604" rx="18.8017" fill="white"/>
<circle cx="42.3038" cy="60.5617" r="19.7418" fill="#1179FC"/>
<g clip-path="url(#clip0_778_146)">
<path d="M44.6595 59.0127L40.4875 64.8535C40.3898 64.9903 40.3726 65.1688 40.4424 65.3218L43.3403 71.6736C43.6001 72.264 44.4506 72.2245 44.6546 71.6126L50.6372 53.6646C50.8209 53.1134 50.2965 52.589 49.7453 52.7728L31.7974 58.7554C31.1855 58.9594 31.146 59.8099 31.7364 60.0697L38.0882 62.9676C38.2411 63.0374 38.4197 63.0202 38.5565 62.9225L44.3972 58.7505C44.4816 58.6901 44.5991 58.7098 44.6595 58.7942C44.7061 58.8596 44.7062 58.9474 44.6595 59.0127Z" fill="white"/>
</g>
<path d="M75.8662 48.9996L73.5507 40.7952H75.1491L76.6273 46.8244H76.7034L78.2818 40.7952H79.736L81.3184 46.8284H81.3905L82.8687 40.7952H84.4671L82.1516 48.9996H80.6854L79.0429 43.2429H78.9788L77.3324 48.9996H75.8662ZM86.7202 48.9996H85.1338L88.0222 40.7952H89.8569L92.7493 48.9996H91.1629L88.9716 42.4778H88.9075L86.7202 48.9996ZM86.7723 45.7828H91.0988V46.9766H86.7723V45.7828ZM94.77 48.9996V40.7952H97.8467C98.4769 40.7952 99.0057 40.9047 99.4331 41.1237C99.863 41.3427 100.188 41.6499 100.407 42.0451C100.628 42.4377 100.739 42.8958 100.739 43.4192C100.739 43.9453 100.627 44.402 100.403 44.7893C100.181 45.1739 99.8537 45.4716 99.421 45.6826C98.9884 45.8909 98.4569 45.9951 97.8266 45.9951H95.6353V44.7612H97.6263C97.9949 44.7612 98.2967 44.7105 98.5317 44.609C98.7667 44.5048 98.9403 44.354 99.0525 44.1563C99.1673 43.956 99.2247 43.7103 99.2247 43.4192C99.2247 43.1281 99.1673 42.8797 99.0525 42.6741C98.9376 42.4658 98.7627 42.3082 98.5277 42.2014C98.2927 42.0919 97.9895 42.0371 97.6183 42.0371H96.2563V48.9996H94.77ZM99.0084 45.282L101.039 48.9996H99.381L97.386 45.282H99.0084ZM103.047 40.7952H104.866L107.302 46.7402H107.398L109.833 40.7952H111.652V48.9996H110.226V43.3631H110.15L107.882 48.9756H106.817L104.549 43.3511H104.473V48.9996H103.047V40.7952ZM119.383 40.7952H120.869V46.1553C120.869 46.7429 120.73 47.2597 120.452 47.7057C120.177 48.1517 119.79 48.5002 119.29 48.7513C118.791 48.9996 118.207 49.1238 117.54 49.1238C116.869 49.1238 116.284 48.9996 115.785 48.7513C115.286 48.5002 114.898 48.1517 114.623 47.7057C114.348 47.2597 114.211 46.7429 114.211 46.1553V40.7952H115.697V46.0312C115.697 46.373 115.772 46.6775 115.921 46.9445C116.074 47.2116 116.287 47.4213 116.562 47.5735C116.837 47.723 117.163 47.7978 117.54 47.7978C117.916 47.7978 118.242 47.723 118.517 47.5735C118.795 47.4213 119.009 47.2116 119.158 46.9445C119.308 46.6775 119.383 46.373 119.383 46.0312V40.7952ZM123.424 48.9996V40.7952H126.501C127.131 40.7952 127.66 40.9128 128.087 41.1478C128.517 41.3828 128.842 41.706 129.061 42.1172C129.282 42.5259 129.393 42.9906 129.393 43.5113C129.393 44.0375 129.282 44.5048 129.061 44.9135C128.839 45.3221 128.512 45.6439 128.079 45.8789C127.647 46.1113 127.114 46.2274 126.481 46.2274H124.442V45.0056H126.281C126.649 45.0056 126.951 44.9415 127.186 44.8133C127.421 44.6851 127.595 44.5089 127.707 44.2845C127.822 44.0602 127.879 43.8025 127.879 43.5113C127.879 43.2202 127.822 42.9639 127.707 42.7422C127.595 42.5205 127.42 42.3483 127.182 42.2254C126.947 42.0999 126.644 42.0371 126.273 42.0371H124.911V48.9996H123.424ZM135.363 48.9996V40.7952H140.699V42.0411H136.849V44.2685H140.422V45.5144H136.849V47.7538H140.731V48.9996H135.363ZM143.155 40.7952H144.974L147.409 46.7402H147.506L149.941 40.7952H151.76V48.9996H150.334V43.3631H150.258L147.99 48.9756H146.925L144.657 43.3511H144.581V48.9996H143.155V40.7952ZM155.372 48.9996H153.786L156.674 40.7952H158.509L161.401 48.9996H159.815L157.624 42.4778H157.559L155.372 48.9996ZM155.424 45.7828H159.751V46.9766H155.424V45.7828ZM164.908 40.7952V48.9996H163.422V40.7952H164.908ZM167.458 48.9996V40.7952H168.944V47.7538H172.557V48.9996H167.458ZM182.985 43.0507C182.947 42.7008 182.79 42.4284 182.512 42.2334C182.237 42.0385 181.879 41.941 181.438 41.941C181.128 41.941 180.863 41.9877 180.641 42.0812C180.419 42.1747 180.25 42.3015 180.132 42.4618C180.015 42.622 179.955 42.8049 179.952 43.0106C179.952 43.1815 179.991 43.3297 180.068 43.4553C180.148 43.5808 180.256 43.6876 180.393 43.7757C180.529 43.8612 180.68 43.9333 180.845 43.9921C181.011 44.0508 181.178 44.1002 181.346 44.1403L182.115 44.3326C182.425 44.4047 182.723 44.5022 183.009 44.625C183.297 44.7479 183.555 44.9028 183.782 45.0897C184.011 45.2767 184.193 45.5024 184.327 45.7668C184.46 46.0312 184.527 46.341 184.527 46.6962C184.527 47.1769 184.404 47.6002 184.158 47.9661C183.913 48.3293 183.557 48.6137 183.093 48.8194C182.631 49.0223 182.071 49.1238 181.414 49.1238C180.776 49.1238 180.222 49.025 179.752 48.8274C179.284 48.6297 178.918 48.3413 178.654 47.9621C178.392 47.5828 178.251 47.1208 178.229 46.576H179.692C179.713 46.8617 179.801 47.0994 179.956 47.2891C180.111 47.4787 180.312 47.6202 180.561 47.7137C180.812 47.8072 181.092 47.8539 181.402 47.8539C181.725 47.8539 182.008 47.8058 182.251 47.7097C182.497 47.6109 182.689 47.4747 182.828 47.3011C182.967 47.1248 183.038 46.9192 183.041 46.6841C183.038 46.4705 182.975 46.2942 182.852 46.1553C182.729 46.0138 182.557 45.8963 182.336 45.8028C182.117 45.7067 181.86 45.6212 181.566 45.5464L180.633 45.3061C179.957 45.1325 179.423 44.8694 179.031 44.5169C178.641 44.1617 178.446 43.6903 178.446 43.1027C178.446 42.6193 178.577 42.196 178.838 41.8328C179.103 41.4696 179.462 41.1878 179.916 40.9875C180.37 40.7846 180.884 40.6831 181.458 40.6831C182.04 40.6831 182.551 40.7846 182.989 40.9875C183.429 41.1878 183.775 41.4669 184.026 41.8248C184.277 42.18 184.407 42.5886 184.415 43.0507H182.985ZM186.792 48.9996V40.7952H192.128V42.0411H188.278V44.2685H191.852V45.5144H188.278V47.7538H192.16V48.9996H186.792ZM201.327 40.7952V48.9996H200.005L196.139 43.4112H196.071V48.9996H194.584V40.7952H195.914L199.776 46.3877H199.848V40.7952H201.327ZM203.526 42.0411V40.7952H210.071V42.0411H207.536V48.9996H206.061V42.0411H203.526Z" fill="#0F0F0F" fill-opacity="0.5"/>
<path d="M81.4626 65.093V81.5018H78.4901V67.9854H78.394L74.5562 70.4371V67.713L78.6343 65.093H81.4626ZM91.694 81.8142C90.3747 81.8142 89.2423 81.4804 88.2969 80.8127C87.3568 80.1397 86.6331 79.1703 86.1256 77.9043C85.6235 76.6331 85.3725 75.1028 85.3725 73.3134C85.3778 71.524 85.6316 70.0017 86.1336 68.7465C86.6411 67.4859 87.3648 66.5245 88.3049 65.8622C89.2504 65.1998 90.3801 64.8687 91.694 64.8687C93.008 64.8687 94.1377 65.1998 95.0832 65.8622C96.0286 66.5245 96.7523 67.4859 97.2544 68.7465C97.7619 70.0071 98.0156 71.5294 98.0156 73.3134C98.0156 75.1081 97.7619 76.6411 97.2544 77.9124C96.7523 79.1783 96.0286 80.1451 95.0832 80.8127C94.1431 81.4804 93.0134 81.8142 91.694 81.8142ZM91.694 79.3065C92.7196 79.3065 93.5288 78.8017 94.1217 77.7922C94.7199 76.7773 95.0191 75.2844 95.0191 73.3134C95.0191 72.0101 94.8829 70.9151 94.6104 70.0285C94.338 69.1418 93.9535 68.4741 93.4567 68.0254C92.96 67.5714 92.3724 67.3444 91.694 67.3444C90.6738 67.3444 89.8673 67.8518 89.2744 68.8667C88.6815 69.8762 88.3824 71.3585 88.377 73.3134C88.3717 74.6221 88.5026 75.7224 88.7696 76.6144C89.042 77.5064 89.4266 78.1794 89.9234 78.6334C90.4201 79.0821 91.0103 79.3065 91.694 79.3065ZM106.743 81.8142C105.423 81.8142 104.291 81.4804 103.346 80.8127C102.406 80.1397 101.682 79.1703 101.174 77.9043C100.672 76.6331 100.421 75.1028 100.421 73.3134C100.427 71.524 100.68 70.0017 101.182 68.7465C101.69 67.4859 102.414 66.5245 103.354 65.8622C104.299 65.1998 105.429 64.8687 106.743 64.8687C108.057 64.8687 109.186 65.1998 110.132 65.8622C111.077 66.5245 111.801 67.4859 112.303 68.7465C112.811 70.0071 113.064 71.5294 113.064 73.3134C113.064 75.1081 112.811 76.6411 112.303 77.9124C111.801 79.1783 111.077 80.1451 110.132 80.8127C109.192 81.4804 108.062 81.8142 106.743 81.8142ZM106.743 79.3065C107.768 79.3065 108.578 78.8017 109.17 77.7922C109.769 76.7773 110.068 75.2844 110.068 73.3134C110.068 72.0101 109.932 70.9151 109.659 70.0285C109.387 69.1418 109.002 68.4741 108.505 68.0254C108.009 67.5714 107.421 67.3444 106.743 67.3444C105.723 67.3444 104.916 67.8518 104.323 68.8667C103.73 69.8762 103.431 71.3585 103.426 73.3134C103.42 74.6221 103.551 75.7224 103.818 76.6144C104.091 77.5064 104.475 78.1794 104.972 78.6334C105.469 79.0821 106.059 79.3065 106.743 79.3065ZM121.735 81.7261C120.95 81.7208 120.184 81.5846 119.436 81.3175C118.688 81.0451 118.015 80.6044 117.417 79.9955C116.819 79.3812 116.343 78.5667 115.991 77.5518C115.638 76.5316 115.465 75.2684 115.47 73.7621C115.47 72.3573 115.619 71.1047 115.919 70.0044C116.218 68.9041 116.648 67.9747 117.209 67.2162C117.769 66.4524 118.445 65.8702 119.236 65.4696C120.031 65.069 120.921 64.8687 121.904 64.8687C122.935 64.8687 123.848 65.0716 124.644 65.4776C125.445 65.8835 126.091 66.439 126.583 67.1441C127.074 67.8438 127.379 68.6343 127.496 69.5157H124.572C124.422 68.8854 124.115 68.3833 123.65 68.0094C123.191 67.6302 122.609 67.4405 121.904 67.4405C120.766 67.4405 119.89 67.9346 119.276 68.9228C118.667 69.9109 118.36 71.2677 118.354 72.9929H118.466C118.728 72.5229 119.067 72.1196 119.484 71.7831C119.901 71.4466 120.371 71.1875 120.894 71.0059C121.423 70.819 121.981 70.7255 122.569 70.7255C123.53 70.7255 124.393 70.9552 125.157 71.4145C125.926 71.8739 126.535 72.5069 126.983 73.3134C127.432 74.1146 127.654 75.0333 127.648 76.0696C127.654 77.1485 127.408 78.118 126.911 78.978C126.414 79.8326 125.723 80.5056 124.836 80.997C123.949 81.4884 122.916 81.7315 121.735 81.7261ZM121.719 79.3225C122.302 79.3225 122.822 79.1809 123.282 78.8978C123.741 78.6147 124.104 78.2328 124.371 77.7521C124.638 77.2714 124.769 76.7319 124.764 76.1337C124.769 75.5461 124.641 75.0146 124.379 74.5393C124.123 74.0639 123.768 73.6873 123.314 73.4096C122.86 73.1318 122.342 72.9929 121.759 72.9929C121.327 72.9929 120.923 73.0757 120.55 73.2413C120.176 73.4069 119.85 73.6366 119.572 73.9303C119.294 74.2188 119.075 74.5553 118.915 74.9399C118.76 75.3191 118.68 75.7251 118.675 76.1577C118.68 76.7292 118.814 77.2554 119.075 77.7361C119.337 78.2168 119.698 78.6014 120.157 78.8898C120.616 79.1783 121.137 79.3225 121.719 79.3225ZM136.061 81.7261C134.993 81.7261 134.037 81.5258 133.193 81.1252C132.349 80.7193 131.678 80.1638 131.182 79.4587C130.69 78.7536 130.429 77.9471 130.396 77.039H133.281C133.334 77.712 133.625 78.2622 134.154 78.6895C134.683 79.1115 135.319 79.3225 136.061 79.3225C136.643 79.3225 137.161 79.1889 137.615 78.9219C138.069 78.6548 138.427 78.2836 138.689 77.8082C138.951 77.3328 139.079 76.7907 139.074 76.1817C139.079 75.5621 138.948 75.012 138.681 74.5312C138.414 74.0505 138.048 73.674 137.583 73.4015C137.119 73.1238 136.584 72.9849 135.981 72.9849C135.489 72.9796 135.006 73.0704 134.531 73.2573C134.055 73.4443 133.679 73.69 133.401 73.9944L130.717 73.5538L131.574 65.093H141.093V67.5768H134.034L133.561 71.9273H133.657C133.962 71.5694 134.392 71.273 134.947 71.038C135.503 70.7976 136.112 70.6774 136.774 70.6774C137.768 70.6774 138.654 70.9125 139.434 71.3825C140.214 71.8472 140.828 72.4882 141.277 73.3054C141.726 74.1226 141.95 75.0574 141.95 76.1096C141.95 77.1939 141.699 78.1607 141.197 79.01C140.7 79.8539 140.008 80.519 139.122 81.005C138.24 81.4857 137.22 81.7261 136.061 81.7261Z" fill="#0F0F0F"/>
<path d="M294.123 48.9998V40.7954H295.61V47.7539H299.223V48.9998H294.123ZM302.815 48.9998H301.229L304.117 40.7954H305.952L308.844 48.9998H307.258L305.067 42.4779H305.003L302.815 48.9998ZM302.867 45.7829H307.194V46.9767H302.867V45.7829ZM317.607 40.7954V48.9998H316.285L312.419 43.4113H312.351V48.9998H310.865V40.7954H312.195L316.057 46.3878H316.129V40.7954H317.607ZM322.947 48.9998H320.167V40.7954H323.003C323.818 40.7954 324.517 40.9596 325.102 41.2881C325.69 41.6139 326.141 42.0826 326.456 42.6942C326.771 43.3058 326.929 44.0376 326.929 44.8896C326.929 45.7442 326.77 46.4786 326.452 47.0929C326.137 47.7071 325.682 48.1785 325.086 48.507C324.493 48.8355 323.78 48.9998 322.947 48.9998ZM321.653 47.7138H322.875C323.446 47.7138 323.923 47.6097 324.305 47.4013C324.687 47.1904 324.974 46.8766 325.166 46.4599C325.359 46.0406 325.455 45.5172 325.455 44.8896C325.455 44.2619 325.359 43.7412 325.166 43.3272C324.974 42.9106 324.69 42.5994 324.313 42.3938C323.939 42.1855 323.474 42.0813 322.919 42.0813H321.653V47.7138ZM329.281 48.9998V40.7954H334.617V42.0413H330.767V44.2686H334.341V45.5145H330.767V47.7539H334.649V48.9998H329.281ZM339.854 48.9998H337.074V40.7954H339.91C340.724 40.7954 341.424 40.9596 342.009 41.2881C342.597 41.6139 343.048 42.0826 343.363 42.6942C343.678 43.3058 343.836 44.0376 343.836 44.8896C343.836 45.7442 343.677 46.4786 343.359 47.0929C343.044 47.7071 342.589 48.1785 341.993 48.507C341.4 48.8355 340.687 48.9998 339.854 48.9998ZM338.56 47.7138H339.782C340.353 47.7138 340.83 47.6097 341.212 47.4013C341.594 47.1904 341.881 46.8766 342.073 46.4599C342.265 46.0406 342.362 45.5172 342.362 44.8896C342.362 44.2619 342.265 43.7412 342.073 43.3272C341.881 42.9106 341.596 42.5994 341.22 42.3938C340.846 42.1855 340.381 42.0813 339.826 42.0813H338.56V47.7138ZM351.413 40.7954V48.9998H349.926V40.7954H351.413ZM360.704 40.7954V48.9998H359.382L355.516 43.4113H355.448V48.9998H353.962V40.7954H355.292L359.154 46.3878H359.226V40.7954H360.704ZM368.488 40.7954V48.9998H367.002V40.7954H368.488ZM377.78 40.7954V48.9998H376.458L372.592 43.4113H372.524V48.9998H371.038V40.7954H372.368L376.23 46.3878H376.302V40.7954H377.78ZM380.34 48.9998V40.7954H383.48C384.073 40.7954 384.566 40.8888 384.959 41.0758C385.354 41.2601 385.649 41.5125 385.844 41.8329C386.042 42.1534 386.14 42.5166 386.14 42.9226C386.14 43.2564 386.076 43.5422 385.948 43.7799C385.82 44.0149 385.648 44.2059 385.431 44.3527C385.215 44.4996 384.973 44.6051 384.706 44.6692V44.7493C384.997 44.7654 385.276 44.8548 385.543 45.0177C385.813 45.178 386.033 45.405 386.204 45.6988C386.375 45.9925 386.461 46.3478 386.461 46.7644C386.461 47.189 386.358 47.5709 386.152 47.9101C385.947 48.2466 385.637 48.5124 385.223 48.7073C384.809 48.9023 384.288 48.9998 383.661 48.9998H380.34ZM381.826 47.7579H383.424C383.964 47.7579 384.352 47.6551 384.59 47.4494C384.83 47.2411 384.951 46.974 384.951 46.6482C384.951 46.4052 384.89 46.1862 384.77 45.9912C384.65 45.7936 384.479 45.6387 384.257 45.5265C384.036 45.4117 383.771 45.3543 383.464 45.3543H381.826V47.7579ZM381.826 44.2846H383.296C383.552 44.2846 383.783 44.2379 383.989 44.1444C384.195 44.0483 384.356 43.9134 384.474 43.7398C384.594 43.5635 384.654 43.3552 384.654 43.1149C384.654 42.7971 384.542 42.5353 384.318 42.3297C384.096 42.124 383.766 42.0212 383.328 42.0212H381.826V44.2846ZM396.025 44.8976C396.025 45.7816 395.859 46.5387 395.528 47.169C395.2 47.7966 394.751 48.2773 394.182 48.6112C393.616 48.945 392.974 49.1119 392.255 49.1119C391.537 49.1119 390.893 48.945 390.324 48.6112C389.758 48.2747 389.309 47.7926 388.978 47.165C388.65 46.5347 388.486 45.7789 388.486 44.8976C388.486 44.0136 388.65 43.2578 388.978 42.6301C389.309 41.9999 389.758 41.5178 390.324 41.184C390.893 40.8501 391.537 40.6832 392.255 40.6832C392.974 40.6832 393.616 40.8501 394.182 41.184C394.751 41.5178 395.2 41.9999 395.528 42.6301C395.859 43.2578 396.025 44.0136 396.025 44.8976ZM394.531 44.8976C394.531 44.2753 394.433 43.7505 394.238 43.3232C394.046 42.8932 393.779 42.5687 393.437 42.3497C393.095 42.128 392.701 42.0172 392.255 42.0172C391.809 42.0172 391.415 42.128 391.073 42.3497C390.732 42.5687 390.463 42.8932 390.268 43.3232C390.076 43.7505 389.98 44.2753 389.98 44.8976C389.98 45.5198 390.076 46.046 390.268 46.4759C390.463 46.9033 390.732 47.2277 391.073 47.4494C391.415 47.6684 391.809 47.7779 392.255 47.7779C392.701 47.7779 393.095 47.6684 393.437 47.4494C393.779 47.2277 394.046 46.9033 394.238 46.4759C394.433 46.046 394.531 45.5198 394.531 44.8976ZM399.315 40.7954L401.121 43.7999H401.185L403 40.7954H404.695L402.167 44.8976L404.735 48.9998H403.012L401.185 46.0153H401.121L399.295 48.9998H397.58L400.172 44.8976L397.612 40.7954H399.315Z" fill="#0F0F0F" fill-opacity="0.5"/>
<path d="M300.469 64.8687C301.254 64.8741 302.018 65.0129 302.76 65.2854C303.508 65.5524 304.181 65.9904 304.78 66.5993C305.378 67.2029 305.853 68.0121 306.206 69.027C306.558 70.0419 306.734 71.2971 306.734 72.7927C306.74 74.2028 306.59 75.4634 306.286 76.5744C305.987 77.6801 305.557 78.6148 304.996 79.3786C304.435 80.1424 303.759 80.7247 302.969 81.1253C302.178 81.5259 301.289 81.7262 300.301 81.7262C299.265 81.7262 298.346 81.5232 297.545 81.1173C296.749 80.7113 296.105 80.1558 295.614 79.4507C295.122 78.7457 294.82 77.9391 294.708 77.0311H297.633C297.782 77.6827 298.087 78.2008 298.546 78.5854C299.011 78.9647 299.596 79.1543 300.301 79.1543C301.438 79.1543 302.314 78.6602 302.929 77.672C303.543 76.6839 303.85 75.3112 303.85 73.5538H303.738C303.476 74.0239 303.137 74.4298 302.72 74.7717C302.304 75.1082 301.831 75.3672 301.302 75.5488C300.779 75.7305 300.223 75.8213 299.636 75.8213C298.674 75.8213 297.809 75.5916 297.04 75.1322C296.276 74.6729 295.67 74.0426 295.221 73.2414C294.778 72.4402 294.553 71.5241 294.548 70.4932C294.548 69.4249 294.794 68.4662 295.285 67.6169C295.782 66.7622 296.474 66.0892 297.36 65.5978C298.247 65.1011 299.283 64.858 300.469 64.8687ZM300.477 67.2724C299.9 67.2724 299.379 67.4139 298.915 67.697C298.455 67.9747 298.092 68.354 297.825 68.8347C297.563 69.3101 297.432 69.8416 297.432 70.4291C297.438 71.0113 297.569 71.5401 297.825 72.0155C298.087 72.4909 298.442 72.8675 298.891 73.1452C299.345 73.423 299.863 73.5618 300.445 73.5618C300.878 73.5618 301.281 73.4791 301.655 73.3135C302.029 73.1479 302.355 72.9182 302.632 72.6244C302.915 72.3253 303.134 71.9861 303.289 71.6069C303.45 71.2277 303.527 70.8271 303.522 70.4051C303.522 69.8442 303.388 69.3261 303.121 68.8507C302.859 68.3753 302.499 67.9934 302.039 67.705C301.585 67.4166 301.065 67.2724 300.477 67.2724ZM315.412 81.7262C314.626 81.7208 313.86 81.5846 313.112 81.3176C312.364 81.0451 311.691 80.6045 311.093 79.9956C310.495 79.3813 310.019 78.5667 309.667 77.5519C309.314 76.5317 309.141 75.2684 309.146 73.7621C309.146 72.3574 309.296 71.1048 309.595 70.0045C309.894 68.9041 310.324 67.9747 310.885 67.2163C311.446 66.4524 312.121 65.8702 312.912 65.4696C313.708 65.069 314.597 64.8687 315.58 64.8687C316.611 64.8687 317.524 65.0717 318.32 65.4776C319.121 65.8836 319.767 66.4391 320.259 67.1442C320.75 67.8439 321.055 68.6344 321.172 69.5157H318.248C318.098 68.8855 317.791 68.3834 317.326 68.0095C316.867 67.6302 316.285 67.4406 315.58 67.4406C314.442 67.4406 313.566 67.9347 312.952 68.9228C312.343 69.911 312.036 71.2677 312.03 72.993H312.143C312.404 72.5229 312.744 72.1197 313.16 71.7832C313.577 71.4467 314.047 71.1876 314.57 71.006C315.099 70.819 315.657 70.7256 316.245 70.7256C317.206 70.7256 318.069 70.9552 318.833 71.4146C319.602 71.874 320.211 72.5069 320.659 73.3135C321.108 74.1147 321.33 75.0334 321.324 76.0696C321.33 77.1486 321.084 78.1181 320.587 78.978C320.091 79.8326 319.399 80.5057 318.512 80.9971C317.626 81.4885 316.592 81.7315 315.412 81.7262ZM315.396 79.3225C315.978 79.3225 316.499 79.181 316.958 78.8979C317.417 78.6148 317.78 78.2329 318.048 77.7522C318.315 77.2714 318.445 76.732 318.44 76.1337C318.445 75.5462 318.317 75.0147 318.056 74.5393C317.799 74.0639 317.444 73.6874 316.99 73.4096C316.536 73.1319 316.018 72.993 315.436 72.993C315.003 72.993 314.6 73.0758 314.226 73.2414C313.852 73.4069 313.526 73.6366 313.248 73.9304C312.971 74.2188 312.752 74.5553 312.591 74.9399C312.436 75.3192 312.356 75.7251 312.351 76.1578C312.356 76.7293 312.49 77.2554 312.752 77.7361C313.013 78.2169 313.374 78.6015 313.833 78.8899C314.293 79.1783 314.813 79.3225 315.396 79.3225ZM329.737 81.7262C328.669 81.7262 327.713 81.5259 326.869 81.1253C326.025 80.7193 325.355 80.1638 324.858 79.4587C324.366 78.7537 324.105 77.9471 324.073 77.0391H326.957C327.01 77.7121 327.302 78.2623 327.83 78.6896C328.359 79.1116 328.995 79.3225 329.737 79.3225C330.319 79.3225 330.838 79.189 331.292 78.9219C331.746 78.6549 332.103 78.2836 332.365 77.8083C332.627 77.3329 332.755 76.7907 332.75 76.1818C332.755 75.5622 332.624 75.012 332.357 74.5313C332.09 74.0506 331.724 73.674 331.259 73.4016C330.795 73.1239 330.261 72.985 329.657 72.985C329.166 72.9796 328.682 73.0704 328.207 73.2574C327.731 73.4443 327.355 73.69 327.077 73.9945L324.393 73.5538L325.25 65.0931H334.769V67.5768H327.71L327.237 71.9274H327.334C327.638 71.5695 328.068 71.2731 328.624 71.038C329.179 70.7977 329.788 70.6775 330.45 70.6775C331.444 70.6775 332.33 70.9125 333.11 71.3826C333.89 71.8473 334.504 72.4882 334.953 73.3055C335.402 74.1227 335.626 75.0574 335.626 76.1097C335.626 77.194 335.375 78.1608 334.873 79.0101C334.376 79.854 333.684 80.519 332.798 81.0051C331.916 81.4858 330.896 81.7262 329.737 81.7262ZM338.31 81.5018V79.3546L344.007 73.7702C344.552 73.22 345.006 72.7313 345.369 72.3039C345.732 71.8766 346.004 71.4627 346.186 71.0621C346.368 70.6615 346.458 70.2342 346.458 69.7801C346.458 69.262 346.341 68.8187 346.106 68.4501C345.871 68.0762 345.548 67.7878 345.136 67.5848C344.725 67.3818 344.258 67.2804 343.734 67.2804C343.195 67.2804 342.722 67.3925 342.316 67.6169C341.91 67.8359 341.595 68.1483 341.371 68.5543C341.152 68.9602 341.042 69.4436 341.042 70.0045H338.214C338.214 68.9629 338.452 68.0575 338.927 67.2884C339.402 66.5192 340.057 65.9236 340.89 65.5017C341.729 65.0797 342.69 64.8687 343.774 64.8687C344.875 64.8687 345.841 65.0744 346.675 65.4857C347.508 65.8969 348.154 66.4605 348.614 67.1762C349.078 67.892 349.311 68.7092 349.311 69.6279C349.311 70.2422 349.193 70.8457 348.958 71.4386C348.723 72.0315 348.309 72.6885 347.716 73.4096C347.129 74.1307 346.304 75.004 345.241 76.0296L342.412 78.9059V79.0181H349.559V81.5018H338.31Z" fill="#0F0F0F"/>
<circle cx="262.296" cy="61.5016" r="19.7418" fill="#02BD6E"/>
<path d="M271.697 58.3126V65.9668C271.697 67.596 270.422 68.9273 268.815 69.0173L268.642 69.0221H255.951C254.321 69.0221 252.99 67.7469 252.9 66.1402L252.895 65.9668V58.3126L261.969 63.0661C262.174 63.1733 262.418 63.1733 262.623 63.0661L271.697 58.3126ZM255.951 53.9807H268.642C270.225 53.9807 271.528 55.1858 271.682 56.7291L262.296 61.6455L252.91 56.7291C253.059 55.243 254.272 54.0704 255.776 53.9856L255.951 53.9807H268.642H255.951Z" fill="white"/>
<path d="M78.5983 134.239C78.5609 133.889 78.4033 133.616 78.1256 133.421C77.8505 133.226 77.4926 133.129 77.0519 133.129C76.7421 133.129 76.4764 133.176 76.2547 133.269C76.0331 133.363 75.8635 133.489 75.746 133.65C75.6285 133.81 75.5684 133.993 75.5657 134.199C75.5657 134.369 75.6044 134.518 75.6819 134.643C75.762 134.769 75.8702 134.876 76.0064 134.964C76.1426 135.049 76.2935 135.121 76.459 135.18C76.6246 135.239 76.7915 135.288 76.9598 135.328L77.729 135.521C78.0388 135.593 78.3365 135.69 78.6223 135.813C78.9107 135.936 79.1685 136.091 79.3955 136.278C79.6252 136.465 79.8068 136.69 79.9403 136.955C80.0738 137.219 80.1406 137.529 80.1406 137.884C80.1406 138.365 80.0178 138.788 79.772 139.154C79.5263 139.517 79.1711 139.802 78.7064 140.007C78.2444 140.21 77.6849 140.312 77.0279 140.312C76.3896 140.312 75.8354 140.213 75.3654 140.015C74.898 139.818 74.5321 139.529 74.2677 139.15C74.006 138.771 73.8645 138.309 73.8431 137.764H75.3053C75.3267 138.05 75.4148 138.287 75.5697 138.477C75.7246 138.667 75.9262 138.808 76.1746 138.902C76.4257 138.995 76.7061 139.042 77.0159 139.042C77.339 139.042 77.6221 138.994 77.8652 138.898C78.1109 138.799 78.3032 138.663 78.442 138.489C78.5809 138.313 78.6517 138.107 78.6544 137.872C78.6517 137.658 78.5889 137.482 78.4661 137.343C78.3432 137.202 78.171 137.084 77.9493 136.991C77.7303 136.895 77.4739 136.809 77.1801 136.734L76.2467 136.494C75.571 136.32 75.0369 136.057 74.6443 135.705C74.2544 135.35 74.0594 134.878 74.0594 134.291C74.0594 133.807 74.1903 133.384 74.452 133.021C74.7164 132.658 75.0756 132.376 75.5296 132.175C75.9837 131.972 76.4978 131.871 77.072 131.871C77.6542 131.871 78.1643 131.972 78.6023 132.175C79.0429 132.376 79.3888 132.655 79.6398 133.013C79.8909 133.368 80.0204 133.777 80.0284 134.239H78.5983ZM83.3271 140.188H81.7407L84.629 131.983H86.4638L89.3562 140.188H87.7698L85.5785 133.666H85.5144L83.3271 140.188ZM83.3792 136.971H87.7057V138.165H83.3792V136.971ZM91.5381 131.983L93.6734 138.441H93.7575L95.8887 131.983H97.5232L94.6308 140.188H92.796L89.9077 131.983H91.5381ZM99.5439 140.188V131.983H104.88V133.229H101.03V135.456H104.604V136.702H101.03V138.942H104.912V140.188H99.5439ZM110.117 140.188H107.336V131.983H110.173C110.987 131.983 111.687 132.147 112.272 132.476C112.859 132.802 113.311 133.27 113.626 133.882C113.941 134.494 114.099 135.225 114.099 136.077C114.099 136.932 113.94 137.666 113.622 138.281C113.307 138.895 112.851 139.366 112.256 139.695C111.663 140.023 110.95 140.188 110.117 140.188ZM108.823 138.902H110.044C110.616 138.902 111.093 138.797 111.475 138.589C111.856 138.378 112.144 138.064 112.336 137.648C112.528 137.228 112.624 136.705 112.624 136.077C112.624 135.45 112.528 134.929 112.336 134.515C112.144 134.098 111.859 133.787 111.483 133.582C111.109 133.373 110.644 133.269 110.088 133.269H108.823V138.902ZM120.189 140.188V131.983H125.445V133.229H121.675V135.456H125.084V136.702H121.675V140.188H120.189ZM127.739 140.188V131.983H130.816C131.446 131.983 131.975 132.093 132.402 132.312C132.832 132.531 133.157 132.838 133.376 133.233C133.597 133.626 133.708 134.084 133.708 134.607C133.708 135.133 133.596 135.59 133.372 135.977C133.15 136.362 132.823 136.66 132.39 136.871C131.957 137.079 131.426 137.183 130.796 137.183H128.604V135.949H130.595C130.964 135.949 131.266 135.898 131.501 135.797C131.736 135.693 131.909 135.542 132.022 135.344C132.136 135.144 132.194 134.898 132.194 134.607C132.194 134.316 132.136 134.068 132.022 133.862C131.907 133.654 131.732 133.496 131.497 133.389C131.262 133.28 130.959 133.225 130.587 133.225H129.225V140.188H127.739ZM131.978 136.47L134.009 140.188H132.35L130.355 136.47H131.978ZM143.347 136.085C143.347 136.969 143.182 137.727 142.851 138.357C142.522 138.984 142.073 139.465 141.505 139.799C140.938 140.133 140.296 140.3 139.578 140.3C138.859 140.3 138.216 140.133 137.647 139.799C137.081 139.462 136.632 138.98 136.301 138.353C135.972 137.723 135.808 136.967 135.808 136.085C135.808 135.201 135.972 134.446 136.301 133.818C136.632 133.188 137.081 132.706 137.647 132.372C138.216 132.038 138.859 131.871 139.578 131.871C140.296 131.871 140.938 132.038 141.505 132.372C142.073 132.706 142.522 133.188 142.851 133.818C143.182 134.446 143.347 135.201 143.347 136.085ZM141.853 136.085C141.853 135.463 141.756 134.938 141.561 134.511C141.368 134.081 141.101 133.757 140.759 133.538C140.418 133.316 140.024 133.205 139.578 133.205C139.132 133.205 138.738 133.316 138.396 133.538C138.054 133.757 137.786 134.081 137.591 134.511C137.398 134.938 137.302 135.463 137.302 136.085C137.302 136.708 137.398 137.234 137.591 137.664C137.786 138.091 138.054 138.416 138.396 138.637C138.738 138.856 139.132 138.966 139.578 138.966C140.024 138.966 140.418 138.856 140.759 138.637C141.101 138.416 141.368 138.091 141.561 137.664C141.756 137.234 141.853 136.708 141.853 136.085ZM145.693 131.983H147.511L149.947 137.928H150.043L152.479 131.983H154.298V140.188H152.871V134.551H152.795L150.528 140.164H149.462L147.195 134.539H147.119V140.188H145.693V131.983ZM165.053 134.239C165.016 133.889 164.858 133.616 164.58 133.421C164.305 133.226 163.947 133.129 163.507 133.129C163.197 133.129 162.931 133.176 162.71 133.269C162.488 133.363 162.318 133.489 162.201 133.65C162.083 133.81 162.023 133.993 162.021 134.199C162.021 134.369 162.059 134.518 162.137 134.643C162.217 134.769 162.325 134.876 162.461 134.964C162.597 135.049 162.748 135.121 162.914 135.18C163.079 135.239 163.246 135.288 163.415 135.328L164.184 135.521C164.494 135.593 164.791 135.69 165.077 135.813C165.366 135.936 165.623 136.091 165.85 136.278C166.08 136.465 166.262 136.69 166.395 136.955C166.529 137.219 166.595 137.529 166.595 137.884C166.595 138.365 166.473 138.788 166.227 139.154C165.981 139.517 165.626 139.802 165.161 140.007C164.699 140.21 164.14 140.312 163.483 140.312C162.844 140.312 162.29 140.213 161.82 140.015C161.353 139.818 160.987 139.529 160.723 139.15C160.461 138.771 160.319 138.309 160.298 137.764H161.76C161.782 138.05 161.87 138.287 162.025 138.477C162.179 138.667 162.381 138.808 162.629 138.902C162.88 138.995 163.161 139.042 163.471 139.042C163.794 139.042 164.077 138.994 164.32 138.898C164.566 138.799 164.758 138.663 164.897 138.489C165.036 138.313 165.107 138.107 165.109 137.872C165.107 137.658 165.044 137.482 164.921 137.343C164.798 137.202 164.626 137.084 164.404 136.991C164.185 136.895 163.929 136.809 163.635 136.734L162.702 136.494C162.026 136.32 161.492 136.057 161.099 135.705C160.709 135.35 160.514 134.878 160.514 134.291C160.514 133.807 160.645 133.384 160.907 133.021C161.171 132.658 161.53 132.376 161.984 132.175C162.438 131.972 162.953 131.871 163.527 131.871C164.109 131.871 164.619 131.972 165.057 132.175C165.498 132.376 165.844 132.655 166.095 133.013C166.346 133.368 166.475 133.777 166.483 134.239H165.053ZM168.861 140.188V131.983H171.937C172.567 131.983 173.096 132.101 173.524 132.336C173.954 132.571 174.278 132.894 174.497 133.305C174.719 133.714 174.83 134.178 174.83 134.699C174.83 135.225 174.719 135.693 174.497 136.101C174.275 136.51 173.948 136.832 173.516 137.067C173.083 137.299 172.55 137.415 171.917 137.415H169.878V136.194H171.717C172.085 136.194 172.387 136.129 172.622 136.001C172.857 135.873 173.031 135.697 173.143 135.472C173.258 135.248 173.315 134.99 173.315 134.699C173.315 134.408 173.258 134.152 173.143 133.93C173.031 133.708 172.856 133.536 172.618 133.413C172.383 133.288 172.08 133.225 171.709 133.225H170.347V140.188H168.861ZM177.2 140.188H175.613L178.502 131.983H180.337L183.229 140.188H181.642L179.451 133.666H179.387L177.2 140.188ZM177.252 136.971H181.578V138.165H177.252V136.971ZM185.25 131.983H187.068L189.504 137.928H189.6L192.036 131.983H193.855V140.188H192.428V134.551H192.352L190.085 140.164H189.019L186.752 134.539H186.676V140.188H185.25V131.983Z" fill="#0F0F0F" fill-opacity="0.5"/>
<path d="M81.4626 156.281V172.69H78.4901V159.173H78.394L74.5562 161.625V158.901L78.6343 156.281H81.4626ZM85.6289 172.69V170.542L91.3255 164.958C91.8703 164.408 92.3243 163.919 92.6875 163.492C93.0508 163.064 93.3232 162.65 93.5048 162.25C93.6864 161.849 93.7772 161.422 93.7772 160.968C93.7772 160.45 93.6597 160.006 93.4247 159.638C93.1896 159.264 92.8665 158.976 92.4552 158.773C92.0439 158.57 91.5765 158.468 91.0531 158.468C90.5136 158.468 90.0409 158.58 89.6349 158.805C89.229 159.024 88.9138 159.336 88.6895 159.742C88.4705 160.148 88.361 160.631 88.361 161.192H85.5327C85.5327 160.151 85.7704 159.245 86.2458 158.476C86.7212 157.707 87.3755 157.111 88.2088 156.689C89.0474 156.268 90.0088 156.057 91.0931 156.057C92.1935 156.057 93.1603 156.262 93.9935 156.673C94.8268 157.085 95.4731 157.648 95.9324 158.364C96.3971 159.08 96.6295 159.897 96.6295 160.816C96.6295 161.43 96.512 162.034 96.277 162.626C96.0419 163.219 95.628 163.876 95.0351 164.597C94.4475 165.319 93.6223 166.192 92.5593 167.217L89.7311 170.094V170.206H96.8779V172.69H85.6289ZM105.347 172.914C104.278 172.914 103.322 172.714 102.478 172.313C101.634 171.907 100.964 171.352 100.467 170.647C99.9759 169.941 99.7141 169.135 99.6821 168.227H102.566C102.62 168.9 102.911 169.45 103.44 169.877C103.969 170.299 104.604 170.51 105.347 170.51C105.929 170.51 106.447 170.377 106.901 170.11C107.355 169.843 107.713 169.471 107.975 168.996C108.236 168.521 108.365 167.979 108.359 167.37C108.365 166.75 108.234 166.2 107.967 165.719C107.7 165.238 107.334 164.862 106.869 164.589C106.404 164.312 105.87 164.173 105.267 164.173C104.775 164.167 104.292 164.258 103.816 164.445C103.341 164.632 102.964 164.878 102.687 165.182L100.003 164.742L100.86 156.281H110.378V158.765H103.32L102.847 163.115H102.943C103.247 162.757 103.677 162.461 104.233 162.226C104.788 161.985 105.397 161.865 106.06 161.865C107.053 161.865 107.94 162.1 108.72 162.57C109.5 163.035 110.114 163.676 110.563 164.493C111.011 165.31 111.236 166.245 111.236 167.297C111.236 168.382 110.984 169.349 110.482 170.198C109.986 171.042 109.294 171.707 108.407 172.193C107.526 172.674 106.506 172.914 105.347 172.914Z" fill="#0F0F0F"/>
<circle cx="42.3038" cy="152.69" r="19.7418" fill="#230078"/>
<path d="M48.96 147.697C49.6462 147.938 50.1381 148.592 50.1381 149.361V157.195C50.1381 159.033 48.6474 160.524 46.8086 160.524H38.9745C38.206 160.524 37.5523 160.032 37.3111 159.346L38.9541 159.349L46.8086 159.349C47.9984 159.349 48.963 158.384 48.963 157.195V149.361L48.9598 149.321L48.96 147.697ZM46.4144 144.856C47.3879 144.856 48.177 145.645 48.177 146.619V156.8C48.177 157.774 47.3879 158.563 46.4144 158.563H36.2326C35.2591 158.563 34.47 157.774 34.47 156.8V146.619C34.47 145.645 35.2591 144.856 36.2326 144.856H46.4144ZM41.3248 148.577C41.0273 148.577 40.7815 148.798 40.7425 149.085L40.7372 149.165V151.123H38.7787C38.4542 151.123 38.1911 151.386 38.1911 151.711C38.1911 152.008 38.4122 152.254 38.699 152.293L38.7787 152.298H40.7372V154.257C40.7372 154.581 41.0003 154.844 41.3248 154.844C41.6222 154.844 41.8681 154.623 41.907 154.337L41.9123 154.257V152.298H43.8708C44.1953 152.298 44.4584 152.035 44.4584 151.711C44.4584 151.413 44.2373 151.167 43.9506 151.129L43.8708 151.123H41.9123V149.165C41.9123 148.84 41.6492 148.577 41.3248 148.577Z" fill="white"/>
<circle cx="262.291" cy="152.69" r="19.7418" fill="#EB5757"/>
<path d="M252.886 152.689C252.886 157.881 257.095 162.09 262.287 162.09C267.479 162.09 271.688 157.881 271.688 152.689C271.688 147.497 267.479 143.288 262.287 143.288C257.095 143.288 252.886 147.497 252.886 152.689ZM266.546 152.426C266.797 152.676 266.819 153.068 266.615 153.344L266.546 153.423L262.785 157.184C262.535 157.435 262.143 157.457 261.867 157.252L261.788 157.184L258.028 153.422C257.752 153.147 257.752 152.7 258.028 152.425C258.278 152.175 258.67 152.152 258.946 152.357L259.025 152.425L261.583 154.984L261.582 148.693C261.582 148.337 261.848 148.042 262.192 147.995L262.287 147.988C262.644 147.988 262.939 148.254 262.986 148.598L262.993 148.693L262.993 154.982L265.549 152.426C265.8 152.176 266.191 152.153 266.467 152.358L266.546 152.426Z" fill="white"/>
<path d="M295.845 140.188L293.529 131.983H295.128L296.606 138.012H296.682L298.26 131.983H299.715L301.297 138.016H301.369L302.847 131.983H304.446L302.13 140.188H300.664L299.021 134.431H298.957L297.311 140.188H295.845ZM306.699 140.188H305.112L308.001 131.983H309.835L312.728 140.188H311.141L308.95 133.666H308.886L306.699 140.188ZM306.751 136.971H311.077V138.165H306.751V136.971ZM314.749 140.188V131.983H317.825C318.455 131.983 318.984 132.093 319.412 132.312C319.842 132.531 320.166 132.838 320.385 133.233C320.607 133.626 320.718 134.084 320.718 134.607C320.718 135.133 320.605 135.59 320.381 135.977C320.159 136.362 319.832 136.66 319.4 136.871C318.967 137.079 318.435 137.183 317.805 137.183H315.614V135.949H317.605C317.973 135.949 318.275 135.898 318.51 135.797C318.745 135.693 318.919 135.542 319.031 135.344C319.146 135.144 319.203 134.898 319.203 134.607C319.203 134.316 319.146 134.068 319.031 133.862C318.916 133.654 318.741 133.496 318.506 133.389C318.271 133.28 317.968 133.225 317.597 133.225H316.235V140.188H314.749ZM318.987 136.47L321.018 140.188H319.359L317.364 136.47H318.987ZM323.026 131.983H324.844L327.28 137.928H327.376L329.812 131.983H331.631V140.188H330.205V134.551H330.128L327.861 140.164H326.795L324.528 134.539H324.452V140.188H323.026V131.983ZM339.361 131.983H340.847V137.343C340.847 137.931 340.708 138.448 340.431 138.894C340.156 139.34 339.768 139.688 339.269 139.939C338.769 140.188 338.186 140.312 337.518 140.312C336.848 140.312 336.263 140.188 335.764 139.939C335.264 139.688 334.877 139.34 334.602 138.894C334.327 138.448 334.189 137.931 334.189 137.343V131.983H335.675V137.219C335.675 137.561 335.75 137.865 335.9 138.132C336.052 138.4 336.266 138.609 336.541 138.761C336.816 138.911 337.142 138.986 337.518 138.986C337.895 138.986 338.221 138.911 338.496 138.761C338.773 138.609 338.987 138.4 339.137 138.132C339.286 137.865 339.361 137.561 339.361 137.219V131.983ZM343.403 140.188V131.983H346.479C347.11 131.983 347.639 132.101 348.066 132.336C348.496 132.571 348.82 132.894 349.039 133.305C349.261 133.714 349.372 134.178 349.372 134.699C349.372 135.225 349.261 135.693 349.039 136.101C348.818 136.51 348.49 136.832 348.058 137.067C347.625 137.299 347.092 137.415 346.459 137.415H344.42V136.194H346.259C346.628 136.194 346.929 136.129 347.164 136.001C347.399 135.873 347.573 135.697 347.685 135.472C347.8 135.248 347.858 134.99 347.858 134.699C347.858 134.408 347.8 134.152 347.685 133.93C347.573 133.708 347.398 133.536 347.16 133.413C346.925 133.288 346.622 133.225 346.251 133.225H344.889V140.188H343.403ZM355.341 140.188V131.983H358.418C359.048 131.983 359.577 132.093 360.004 132.312C360.434 132.531 360.759 132.838 360.978 133.233C361.199 133.626 361.31 134.084 361.31 134.607C361.31 135.133 361.198 135.59 360.974 135.977C360.752 136.362 360.425 136.66 359.992 136.871C359.56 137.079 359.028 137.183 358.398 137.183H356.206V135.949H358.197C358.566 135.949 358.868 135.898 359.103 135.797C359.338 135.693 359.511 135.542 359.624 135.344C359.738 135.144 359.796 134.898 359.796 134.607C359.796 134.316 359.738 134.068 359.624 133.862C359.509 133.654 359.334 133.496 359.099 133.389C358.864 133.28 358.561 133.225 358.189 133.225H356.827V140.188H355.341ZM359.58 136.47L361.611 140.188H359.952L357.957 136.47H359.58ZM363.618 140.188V131.983H368.954V133.229H365.105V135.456H368.678V136.702H365.105V138.942H368.986V140.188H363.618ZM378.433 134.751H376.935C376.892 134.506 376.814 134.288 376.699 134.098C376.584 133.906 376.441 133.743 376.27 133.61C376.099 133.476 375.904 133.376 375.685 133.309C375.469 133.24 375.235 133.205 374.984 133.205C374.538 133.205 374.143 133.317 373.798 133.542C373.454 133.763 373.184 134.089 372.989 134.519C372.794 134.946 372.697 135.468 372.697 136.085C372.697 136.713 372.794 137.242 372.989 137.672C373.187 138.099 373.456 138.422 373.798 138.641C374.143 138.858 374.537 138.966 374.98 138.966C375.226 138.966 375.456 138.934 375.669 138.87C375.885 138.803 376.079 138.705 376.25 138.577C376.424 138.449 376.569 138.291 376.687 138.104C376.807 137.917 376.89 137.704 376.935 137.463L378.433 137.471C378.377 137.861 378.256 138.227 378.069 138.569C377.885 138.911 377.643 139.213 377.344 139.474C377.045 139.734 376.695 139.937 376.294 140.083C375.893 140.228 375.449 140.3 374.96 140.3C374.239 140.3 373.595 140.133 373.029 139.799C372.463 139.465 372.017 138.983 371.691 138.353C371.365 137.723 371.202 136.967 371.202 136.085C371.202 135.201 371.367 134.446 371.695 133.818C372.024 133.188 372.471 132.706 373.037 132.372C373.603 132.038 374.244 131.871 374.96 131.871C375.417 131.871 375.841 131.935 376.234 132.063C376.627 132.191 376.976 132.38 377.284 132.628C377.591 132.874 377.843 133.176 378.041 133.534C378.241 133.889 378.372 134.295 378.433 134.751ZM380.734 140.188V131.983H386.071V133.229H382.221V135.456H385.794V136.702H382.221V138.942H386.103V140.188H380.734ZM390.013 131.983V140.188H388.527V131.983H390.013ZM393.66 131.983L395.796 138.441H395.88L398.011 131.983H399.645L396.753 140.188H394.918L392.03 131.983H393.66ZM401.666 140.188V131.983H407.002V133.229H403.152V135.456H406.726V136.702H403.152V138.942H407.034V140.188H401.666ZM412.239 140.188H409.458V131.983H412.295C413.109 131.983 413.809 132.147 414.394 132.476C414.982 132.802 415.433 133.27 415.748 133.882C416.063 134.494 416.221 135.225 416.221 136.077C416.221 136.932 416.062 137.666 415.744 138.281C415.429 138.895 414.973 139.366 414.378 139.695C413.785 140.023 413.072 140.188 412.239 140.188ZM410.945 138.902H412.167C412.738 138.902 413.215 138.797 413.597 138.589C413.979 138.378 414.266 138.064 414.458 137.648C414.65 137.228 414.746 136.705 414.746 136.077C414.746 135.45 414.65 134.929 414.458 134.515C414.266 134.098 413.981 133.787 413.605 133.582C413.231 133.373 412.766 133.269 412.211 133.269H410.945V138.902Z" fill="#0F0F0F" fill-opacity="0.5"/>
<path d="M300.776 172.914C299.991 172.909 299.224 172.772 298.477 172.505C297.729 172.233 297.056 171.792 296.458 171.183C295.859 170.569 295.384 169.755 295.031 168.74C294.679 167.719 294.505 166.456 294.511 164.95C294.511 163.545 294.66 162.293 294.959 161.192C295.258 160.092 295.688 159.163 296.249 158.404C296.81 157.64 297.486 157.058 298.276 156.657C299.072 156.257 299.962 156.057 300.944 156.057C301.975 156.057 302.889 156.26 303.685 156.665C304.486 157.071 305.132 157.627 305.623 158.332C306.115 159.032 306.419 159.822 306.537 160.704H303.612C303.463 160.073 303.156 159.571 302.691 159.197C302.232 158.818 301.649 158.628 300.944 158.628C299.807 158.628 298.931 159.122 298.316 160.111C297.707 161.099 297.4 162.456 297.395 164.181H297.507C297.769 163.711 298.108 163.307 298.525 162.971C298.941 162.634 299.411 162.375 299.935 162.194C300.464 162.007 301.022 161.913 301.609 161.913C302.571 161.913 303.433 162.143 304.197 162.602C304.966 163.062 305.575 163.695 306.024 164.501C306.473 165.302 306.694 166.221 306.689 167.257C306.694 168.336 306.449 169.306 305.952 170.166C305.455 171.02 304.763 171.693 303.877 172.185C302.99 172.676 301.957 172.919 300.776 172.914ZM300.76 170.51C301.342 170.51 301.863 170.369 302.322 170.086C302.782 169.803 303.145 169.421 303.412 168.94C303.679 168.459 303.81 167.92 303.805 167.322C303.81 166.734 303.682 166.203 303.42 165.727C303.164 165.252 302.809 164.875 302.354 164.597C301.9 164.32 301.382 164.181 300.8 164.181C300.367 164.181 299.964 164.264 299.59 164.429C299.216 164.595 298.891 164.824 298.613 165.118C298.335 165.407 298.116 165.743 297.956 166.128C297.801 166.507 297.721 166.913 297.715 167.346C297.721 167.917 297.854 168.443 298.116 168.924C298.378 169.405 298.738 169.789 299.198 170.078C299.657 170.366 300.178 170.51 300.76 170.51ZM315.102 172.914C314.033 172.914 313.077 172.714 312.233 172.313C311.389 171.907 310.719 171.352 310.222 170.647C309.731 169.941 309.469 169.135 309.437 168.227H312.322C312.375 168.9 312.666 169.45 313.195 169.877C313.724 170.299 314.359 170.51 315.102 170.51C315.684 170.51 316.202 170.377 316.656 170.11C317.11 169.843 317.468 169.471 317.73 168.996C317.991 168.521 318.12 167.979 318.114 167.37C318.12 166.75 317.989 166.2 317.722 165.719C317.455 165.238 317.089 164.862 316.624 164.589C316.159 164.312 315.625 164.173 315.022 164.173C314.53 164.167 314.047 164.258 313.571 164.445C313.096 164.632 312.719 164.878 312.442 165.182L309.758 164.742L310.615 156.281H320.133V158.765H313.075L312.602 163.115H312.698C313.003 162.757 313.433 162.461 313.988 162.226C314.544 161.985 315.152 161.865 315.815 161.865C316.808 161.865 317.695 162.1 318.475 162.57C319.255 163.035 319.869 163.676 320.318 164.493C320.766 165.31 320.991 166.245 320.991 167.297C320.991 168.382 320.74 169.349 320.237 170.198C319.741 171.042 319.049 171.707 318.162 172.193C317.281 172.674 316.261 172.914 315.102 172.914ZM323.675 172.69V170.542L329.371 164.958C329.916 164.408 330.37 163.919 330.733 163.492C331.097 163.064 331.369 162.65 331.551 162.25C331.732 161.849 331.823 161.422 331.823 160.968C331.823 160.45 331.705 160.006 331.47 159.638C331.235 159.264 330.912 158.976 330.501 158.773C330.09 158.57 329.622 158.468 329.099 158.468C328.559 158.468 328.087 158.58 327.681 158.805C327.275 159.024 326.96 159.336 326.735 159.742C326.516 160.148 326.407 160.631 326.407 161.192H323.579C323.579 160.151 323.816 159.245 324.292 158.476C324.767 157.707 325.421 157.111 326.255 156.689C327.093 156.268 328.055 156.057 329.139 156.057C330.239 156.057 331.206 156.262 332.039 156.673C332.873 157.085 333.519 157.648 333.978 158.364C334.443 159.08 334.675 159.897 334.675 160.816C334.675 161.43 334.558 162.034 334.323 162.626C334.088 163.219 333.674 163.876 333.081 164.597C332.493 165.319 331.668 166.192 330.605 167.217L327.777 170.094V170.206H334.924V172.69H323.675ZM343.577 172.914C342.423 172.914 341.397 172.716 340.5 172.321C339.608 171.926 338.903 171.376 338.385 170.671C337.867 169.966 337.592 169.151 337.56 168.227H340.572C340.599 168.67 340.746 169.057 341.013 169.389C341.28 169.714 341.635 169.968 342.078 170.15C342.522 170.331 343.019 170.422 343.569 170.422C344.156 170.422 344.677 170.321 345.131 170.118C345.585 169.909 345.94 169.621 346.197 169.252C346.453 168.884 346.579 168.459 346.573 167.979C346.579 167.482 346.45 167.044 346.189 166.665C345.927 166.285 345.548 165.989 345.051 165.775C344.56 165.562 343.967 165.455 343.272 165.455H341.822V163.163H343.272C343.844 163.163 344.343 163.064 344.771 162.867C345.203 162.669 345.542 162.391 345.788 162.034C346.034 161.67 346.154 161.251 346.149 160.776C346.154 160.311 346.05 159.908 345.836 159.566C345.628 159.219 345.331 158.949 344.947 158.757C344.568 158.564 344.122 158.468 343.609 158.468C343.107 158.468 342.642 158.559 342.215 158.741C341.787 158.922 341.443 159.181 341.181 159.518C340.919 159.849 340.78 160.244 340.764 160.704H337.904C337.926 159.785 338.19 158.978 338.697 158.284C339.21 157.584 339.894 157.039 340.748 156.649C341.603 156.254 342.562 156.057 343.625 156.057C344.72 156.057 345.671 156.262 346.477 156.673C347.289 157.079 347.917 157.627 348.36 158.316C348.803 159.005 349.025 159.766 349.025 160.599C349.03 161.523 348.758 162.298 348.208 162.923C347.663 163.548 346.947 163.956 346.06 164.149V164.277C347.214 164.437 348.098 164.864 348.712 165.559C349.332 166.248 349.639 167.105 349.634 168.131C349.634 169.049 349.372 169.872 348.849 170.598C348.331 171.32 347.615 171.886 346.701 172.297C345.793 172.708 344.752 172.914 343.577 172.914Z" fill="#0F0F0F"/>
<line x1="23.509" y1="106.156" x2="414.585" y2="106.156" stroke="#0F0F0F" stroke-opacity="0.1" stroke-width="0.940086"/>
<line x1="227.974" y1="15.4376" x2="227.974" y2="197.814" stroke="#0F0F0F" stroke-opacity="0.1" stroke-width="0.940086"/>
<defs>
<clipPath id="clip0_778_146">
<rect width="22.5621" height="22.5621" fill="white" transform="translate(31.02 49.2805)"/>
</clipPath>
</defs>
</svg>
