<svg width="102" height="102" viewBox="0 0 102 102" fill="none" xmlns="http://www.w3.org/2000/svg">
<path d="M101 50.4836C101 78.0979 78.6142 100.484 51 100.484C23.3858 100.484 1 78.0979 1 50.4836C1 22.8694 23.3858 0.483643 51 0.483643C78.6142 0.483643 101 22.8694 101 50.4836ZM9 50.4836C9 73.6796 27.804 92.4836 51 92.4836C74.196 92.4836 93 73.6796 93 50.4836C93 27.2877 74.196 8.48364 51 8.48364C27.804 8.48364 9 27.2877 9 50.4836Z" fill="#E4EEFA"/>
<path d="M44.7387 1.09736C33.2544 2.48495 22.6066 7.81161 14.6094 16.1698C6.61226 24.5279 1.76058 35.4004 0.881035 46.9347C0.00149362 58.4689 3.14852 69.9513 9.78589 79.4254C16.4233 88.8995 26.1403 95.7791 37.2814 98.892C48.4224 102.005 60.2982 101.158 70.8851 96.4969C81.4721 91.8353 90.1151 83.6471 95.3417 73.3274C100.568 63.0077 102.055 51.195 99.5484 39.9021C97.0418 28.6092 90.6971 18.5347 81.5954 11.3953L76.6579 17.6899C84.3034 23.687 89.6329 32.1495 91.7385 41.6356C93.844 51.1217 92.5952 61.0443 88.2048 69.7129C83.8145 78.3814 76.5543 85.2595 67.6613 89.1752C58.7683 93.0909 48.7927 93.8019 39.4342 91.1871C30.0757 88.5723 21.9133 82.7934 16.338 74.8352C10.7626 66.8769 8.11906 57.2317 8.85788 47.5429C9.59669 37.8541 13.6721 28.7212 20.3897 21.7004C27.1073 14.6796 36.0515 10.2052 45.6983 9.0396L44.7387 1.09736Z" fill="#1179FC"/>
<path d="M36.5312 54.4836C35.7695 54.929 34.8789 55.1516 33.8594 55.1516C32.418 55.1516 31.0938 54.8293 29.8867 54.1848C28.6914 53.5286 27.7363 52.5735 27.0215 51.3196C26.3066 50.0657 25.9492 48.5774 25.9492 46.8547C25.9492 45.0149 26.3711 43.4446 27.2148 42.1438C28.0586 40.843 29.1953 39.8645 30.625 39.2083C32.0547 38.5403 33.6309 38.2063 35.3535 38.2063C37.0879 38.2063 38.6699 38.5403 40.0996 39.2083C41.5293 39.8645 42.666 40.843 43.5098 42.1438C44.3535 43.4446 44.7754 45.0149 44.7754 46.8547C44.7754 48.7883 44.248 50.6223 43.1934 52.3567L36.3906 63.4836H30.8184L36.5312 54.4836ZM35.3535 51.2141C36.2207 51.2141 36.9883 51.0383 37.6562 50.6868C38.3359 50.3235 38.8633 49.8254 39.2383 49.1926C39.625 48.5481 39.8184 47.8157 39.8184 46.9954C39.8184 46.175 39.625 45.4485 39.2383 44.8157C38.8516 44.1829 38.3184 43.6907 37.6387 43.3391C36.9707 42.9875 36.209 42.8118 35.3535 42.8118C34.5098 42.8118 33.748 42.9875 33.0684 43.3391C32.4004 43.6907 31.873 44.1887 31.4863 44.8333C31.0996 45.4661 30.9062 46.1926 30.9062 47.0129C30.9062 47.8215 31.0938 48.5481 31.4688 49.1926C31.8555 49.8254 32.3887 50.3235 33.0684 50.6868C33.748 51.0383 34.5098 51.2141 35.3535 51.2141ZM49.9902 64.0461C49.4277 64.0461 48.918 63.9231 48.4609 63.677C48.0156 63.4309 47.6641 63.0852 47.4062 62.6399C47.1602 62.1946 47.0371 61.6907 47.0371 61.1282C47.0371 60.5774 47.1602 60.0793 47.4062 59.634C47.6641 59.1887 48.0156 58.843 48.4609 58.5969C48.918 58.3391 49.4277 58.2102 49.9902 58.2102C50.5645 58.2102 51.0801 58.3391 51.5371 58.5969C51.9941 58.843 52.3457 59.1887 52.5918 59.634C52.8496 60.0676 52.9785 60.5657 52.9785 61.1282C52.9785 61.9836 52.6973 62.6868 52.1348 63.2375C51.584 63.7766 50.8691 64.0461 49.9902 64.0461ZM65.3828 54.4836C64.6211 54.929 63.7305 55.1516 62.7109 55.1516C61.2695 55.1516 59.9453 54.8293 58.7383 54.1848C57.543 53.5286 56.5879 52.5735 55.873 51.3196C55.1582 50.0657 54.8008 48.5774 54.8008 46.8547C54.8008 45.0149 55.2227 43.4446 56.0664 42.1438C56.9102 40.843 58.0469 39.8645 59.4766 39.2083C60.9062 38.5403 62.4824 38.2063 64.2051 38.2063C65.9395 38.2063 67.5215 38.5403 68.9512 39.2083C70.3809 39.8645 71.5176 40.843 72.3613 42.1438C73.2051 43.4446 73.627 45.0149 73.627 46.8547C73.627 48.7883 73.0996 50.6223 72.0449 52.3567L65.2422 63.4836H59.6699L65.3828 54.4836ZM64.2051 51.2141C65.0723 51.2141 65.8398 51.0383 66.5078 50.6868C67.1875 50.3235 67.7148 49.8254 68.0898 49.1926C68.4766 48.5481 68.6699 47.8157 68.6699 46.9954C68.6699 46.175 68.4766 45.4485 68.0898 44.8157C67.7031 44.1829 67.1699 43.6907 66.4902 43.3391C65.8223 42.9875 65.0605 42.8118 64.2051 42.8118C63.3613 42.8118 62.5996 42.9875 61.9199 43.3391C61.252 43.6907 60.7246 44.1887 60.3379 44.8333C59.9512 45.4661 59.7578 46.1926 59.7578 47.0129C59.7578 47.8215 59.9453 48.5481 60.3203 49.1926C60.707 49.8254 61.2402 50.3235 61.9199 50.6868C62.5996 51.0383 63.3613 51.2141 64.2051 51.2141Z" fill="#1179FC"/>
</svg>
